<?xml version="1.0" encoding="UTF-8"?><svg id="Capa_1" xmlns="http://www.w3.org/2000/svg" xmlns:xlink="http://www.w3.org/1999/xlink" viewBox="0 0 2372 709"><defs><style>.cls-1,.cls-2,.cls-3,.cls-4,.cls-5,.cls-6,.cls-7,.cls-8,.cls-9,.cls-10,.cls-11,.cls-12,.cls-13{fill:none;}.cls-2,.cls-3,.cls-4,.cls-10,.cls-12{stroke-linecap:round;}.cls-2,.cls-3,.cls-4,.cls-12{stroke-linejoin:round;}.cls-2,.cls-5,.cls-6,.cls-7,.cls-8,.cls-9,.cls-11,.cls-12,.cls-13{stroke:#fff;}.cls-3{stroke:#ff9866;}.cls-4{stroke:#0066cb;}.cls-5{font-size:232.66px;}.cls-5,.cls-14,.cls-6,.cls-7,.cls-15,.cls-16,.cls-8,.cls-17,.cls-18,.cls-19,.cls-20,.cls-21,.cls-11,.cls-13{font-family:Quicksand-SemiBold, Quicksand;font-variation-settings:'wght' 600;font-weight:600;}.cls-5,.cls-6,.cls-7,.cls-8,.cls-22,.cls-23,.cls-9,.cls-10,.cls-11,.cls-13{stroke-miterlimit:10;}.cls-24{letter-spacing:-.01em;}.cls-24,.cls-25,.cls-26,.cls-27,.cls-28,.cls-29,.cls-30{font-family:Quicksand-Bold, Quicksand;font-variation-settings:'wght' 700;font-weight:700;}.cls-14{letter-spacing:0em;}.cls-31{clip-path:url(#clippath);}.cls-6{font-size:145.84px;}.cls-6,.cls-8,.cls-12{stroke-width:3px;}.cls-32{letter-spacing:0em;}.cls-25{font-size:19.74px;}.cls-25,.cls-26,.cls-33,.cls-17,.cls-20{fill:#0066cb;}.cls-34,.cls-35,.cls-36{font-family:Quicksand-Medium, Quicksand;font-variation-settings:'wght' 500;font-weight:500;}.cls-34,.cls-29{letter-spacing:0em;}.cls-7{font-size:113.31px;}.cls-26{font-size:19.74px;}.cls-37{fill:#00d8cf;}.cls-38{fill:#00cbcb;}.cls-39{fill:#ededed;}.cls-40,.cls-41,.cls-22,.cls-23{fill:#fff;}.cls-42,.cls-15,.cls-19{fill:#ffcb98;}.cls-43,.cls-16,.cls-21,.cls-44{fill:#ff9866;}.cls-45{letter-spacing:-.06em;}.cls-35{letter-spacing:0em;}.cls-33{font-size:143.66px;}.cls-15{font-size:44.91px;}.cls-41{font-size:69.31px;}.cls-16{font-size:19.66px;}.cls-28{letter-spacing:-.02em;}.cls-8{font-size:145.74px;}.cls-46{letter-spacing:-.07em;}.cls-22{stroke:#6698cb;}.cls-23,.cls-10{stroke:#00d8cf;}.cls-30{letter-spacing:0em;}.cls-17{font-size:44.88px;}.cls-47{letter-spacing:-.05em;}.cls-48{letter-spacing:-.05em;}.cls-49{opacity:.44;}.cls-50{opacity:.52;}.cls-51{opacity:.54;}.cls-19{font-size:36.38px;}.cls-20{font-size:36.35px;}.cls-21{font-size:15.95px;}.cls-52{letter-spacing:0em;}.cls-53{letter-spacing:-.01em;}.cls-54{letter-spacing:-.01em;}.cls-44{font-family:Quicksand-Regular, Quicksand;font-size:60px;font-variation-settings:'wght' 400;}.cls-10{stroke-width:.75px;}.cls-11{font-size:113.23px;}.cls-55{letter-spacing:0em;}.cls-13{font-size:232.82px;}</style><clipPath id="clippath"><rect class="cls-1" x="4" y="192" width="2372" height="184"/></clipPath></defs><rect class="cls-39" x="4" y="5" width="2365" height="644"/><rect class="cls-43" x="148.35" y="114.71" width="2075.39" height="580.44"/><polygon class="cls-43" points="150.72 115.04 6.2 190.52 150.72 190.52 150.72 115.04"/><polygon class="cls-43" points="2221.37 115.04 2365.89 190.52 2221.37 190.52 2221.37 115.04"/><rect class="cls-40" x="1178.3" y="134.23" width="358.64" height="200.53" transform="translate(25.05 -115.32) rotate(4.91)"/><circle class="cls-43" cx="1221.04" cy="152.31" r="3.34"/><circle class="cls-43" cx="1260.99" cy="155.45" r="3.34"/><circle class="cls-43" cx="1300.93" cy="158.59" r="3.34"/><circle class="cls-43" cx="1342.2" cy="161.83" r="3.34"/><circle class="cls-43" cx="1382.14" cy="164.96" r="3.34"/><circle class="cls-43" cx="1423.41" cy="168.21" r="3.34"/><circle class="cls-43" cx="1463.35" cy="171.34" r="3.34"/><circle class="cls-43" cx="1503.3" cy="174.48" r="3.34"/><circle class="cls-43" cx="1218.64" cy="182.94" r="3.34"/><circle class="cls-43" cx="1258.58" cy="186.07" r="3.34"/><circle class="cls-43" cx="1298.52" cy="189.21" r="3.34"/><circle class="cls-43" cx="1339.79" cy="192.45" r="3.34"/><circle class="cls-43" cx="1379.74" cy="195.59" r="3.34"/><circle class="cls-43" cx="1421.01" cy="198.83" r="3.34"/><circle class="cls-43" cx="1460.95" cy="201.96" r="3.34"/><circle class="cls-43" cx="1500.89" cy="205.1" r="3.34"/><circle class="cls-43" cx="1216.34" cy="212.23" r="3.34"/><circle class="cls-43" cx="1256.28" cy="215.36" r="3.34"/><circle class="cls-43" cx="1296.22" cy="218.5" r="3.34"/><circle class="cls-43" cx="1337.49" cy="221.74" r="3.34"/><circle class="cls-43" cx="1377.44" cy="224.88" r="3.34"/><circle class="cls-43" cx="1418.71" cy="228.12" r="3.34"/><circle class="cls-43" cx="1458.65" cy="231.25" r="3.34"/><circle class="cls-43" cx="1498.59" cy="234.39" r="3.34"/><circle class="cls-43" cx="1213.93" cy="242.85" r="3.34"/><circle class="cls-43" cx="1253.88" cy="245.98" r="3.34"/><circle class="cls-43" cx="1293.82" cy="249.12" r="3.34"/><circle class="cls-43" cx="1335.09" cy="252.36" r="3.34"/><circle class="cls-43" cx="1375.03" cy="255.5" r="3.34"/><circle class="cls-43" cx="1416.3" cy="258.74" r="3.34"/><circle class="cls-43" cx="1456.25" cy="261.88" r="3.34"/><circle class="cls-43" cx="1496.19" cy="265.01" r="3.34"/><rect class="cls-42" x="1081.8" y="166.83" width="220.33" height="123.2" transform="translate(145.84 -386.86) rotate(19.61)"/><rect class="cls-43" x="1223.95" y="171.57" width="220.33" height="123.2" transform="translate(387.93 -735.84) rotate(35.77)"/><rect class="cls-37" x="1529.54" y="143.25" width="219.4" height="122.77" transform="translate(61.7 -285.6) rotate(10.15)"/><rect class="cls-40" x="1738.81" y="93.96" width="358.64" height="200.53" transform="translate(3845.84 223.58) rotate(175.09)"/><circle class="cls-43" cx="2054.7" cy="112.04" r="3.34"/><circle class="cls-43" cx="2014.76" cy="115.17" r="3.34"/><circle class="cls-43" cx="1974.82" cy="118.31" r="3.34"/><circle class="cls-43" cx="1933.55" cy="121.55" r="3.34"/><circle class="cls-43" cx="1893.61" cy="124.69" r="3.34"/><circle class="cls-43" cx="1852.33" cy="127.93" r="3.34"/><circle class="cls-43" cx="1812.39" cy="131.07" r="3.34"/><circle class="cls-43" cx="1772.45" cy="134.2" r="3.34"/><circle class="cls-43" cx="2057.11" cy="142.66" r="3.34"/><circle class="cls-43" cx="2017.17" cy="145.8" r="3.34"/><circle class="cls-43" cx="1977.23" cy="148.93" r="3.34"/><circle class="cls-43" cx="1935.95" cy="152.17" r="3.34"/><circle class="cls-43" cx="1896.01" cy="155.31" r="3.34"/><circle class="cls-43" cx="1854.74" cy="158.55" r="3.34"/><circle class="cls-43" cx="1814.8" cy="161.69" r="3.34"/><circle class="cls-43" cx="1774.86" cy="164.82" r="3.34"/><circle class="cls-43" cx="2059.41" cy="171.95" r="3.34"/><circle class="cls-43" cx="2019.47" cy="175.09" r="3.34"/><circle class="cls-43" cx="1979.53" cy="178.22" r="3.34"/><circle class="cls-43" cx="1938.25" cy="181.46" r="3.34"/><circle class="cls-43" cx="1898.31" cy="184.6" r="3.34"/><circle class="cls-43" cx="1857.04" cy="187.84" r="3.34"/><circle class="cls-43" cx="1817.1" cy="190.98" r="3.34"/><circle class="cls-43" cx="1777.16" cy="194.11" r="3.34"/><circle class="cls-43" cx="2061.81" cy="202.57" r="3.34"/><circle class="cls-43" cx="2021.87" cy="205.71" r="3.34"/><circle class="cls-43" cx="1981.93" cy="208.84" r="3.34"/><circle class="cls-43" cx="1940.66" cy="212.09" r="3.34"/><circle class="cls-43" cx="1900.72" cy="215.22" r="3.34"/><circle class="cls-43" cx="1859.44" cy="218.46" r="3.34"/><circle class="cls-43" cx="1819.5" cy="221.6" r="3.34"/><circle class="cls-43" cx="1779.56" cy="224.74" r="3.34"/><rect class="cls-42" x="1973.61" y="126.55" width="220.33" height="123.2" transform="translate(4109.81 -334.09) rotate(160.39)"/><rect class="cls-43" x="1831.46" y="131.29" width="220.33" height="123.2" transform="translate(3629.78 -785.52) rotate(144.23)"/><rect class="cls-40" x="588.19" y="138.73" width="121.34" height="67.85" transform="translate(17.16 -54.89) rotate(4.91)"/><circle class="cls-43" cx="602.65" cy="144.85" r="1.13"/><circle class="cls-43" cx="616.17" cy="145.91" r="1.13"/><circle class="cls-43" cx="629.68" cy="146.97" r="1.13"/><circle class="cls-43" cx="643.64" cy="148.07" r="1.13"/><circle class="cls-43" cx="657.16" cy="149.13" r="1.13"/><circle class="cls-43" cx="671.12" cy="150.22" r="1.13"/><circle class="cls-43" cx="684.64" cy="151.29" r="1.13"/><circle class="cls-43" cx="698.15" cy="152.35" r="1.13"/><circle class="cls-43" cx="601.84" cy="155.21" r="1.13"/><circle class="cls-43" cx="615.35" cy="156.27" r="1.13"/><circle class="cls-43" cx="628.87" cy="157.33" r="1.13"/><circle class="cls-43" cx="642.83" cy="158.43" r="1.13"/><circle class="cls-43" cx="656.34" cy="159.49" r="1.13"/><circle class="cls-43" cx="670.31" cy="160.59" r="1.13"/><circle class="cls-43" cx="683.82" cy="161.65" r="1.13"/><circle class="cls-43" cx="697.34" cy="162.71" r="1.13"/><circle class="cls-43" cx="601.06" cy="165.12" r="1.13"/><circle class="cls-43" cx="614.57" cy="166.18" r="1.13"/><circle class="cls-43" cx="628.09" cy="167.24" r="1.13"/><circle class="cls-43" cx="642.05" cy="168.34" r="1.13"/><circle class="cls-43" cx="655.57" cy="169.4" r="1.13"/><circle class="cls-43" cx="669.53" cy="170.5" r="1.13"/><circle class="cls-43" cx="683.04" cy="171.56" r="1.13"/><circle class="cls-43" cx="696.56" cy="172.62" r="1.13"/><circle class="cls-43" cx="600.25" cy="175.48" r="1.13"/><circle class="cls-43" cx="613.76" cy="176.54" r="1.13"/><circle class="cls-43" cx="627.27" cy="177.6" r="1.13"/><circle class="cls-43" cx="641.24" cy="178.7" r="1.13"/><circle class="cls-43" cx="654.75" cy="179.76" r="1.13"/><circle class="cls-43" cx="668.72" cy="180.86" r="1.13"/><circle class="cls-43" cx="682.23" cy="181.92" r="1.13"/><circle class="cls-43" cx="695.74" cy="182.98" r="1.13"/><rect class="cls-42" x="340.26" y="136.03" width="220.33" height="123.2" transform="translate(92.47 -139.73) rotate(19.61)"/><rect class="cls-37" x="482.41" y="140.77" width="220.33" height="123.2" transform="translate(230.06 -308.2) rotate(35.77)"/><rect class="cls-40" x="1287.28" y="131.86" width="358.64" height="200.53" transform="translate(110.83 -373.43) rotate(15.07)"/><circle class="cls-43" cx="1346.67" cy="127.13" r="3.34"/><circle class="cls-43" cx="1385.43" cy="137.27" r="3.34"/><circle class="cls-43" cx="1424.19" cy="147.4" r="3.34"/><circle class="cls-43" cx="1464.25" cy="157.88" r="3.34"/><circle class="cls-43" cx="1503.01" cy="168.01" r="3.34"/><circle class="cls-43" cx="1543.06" cy="178.49" r="3.34"/><circle class="cls-43" cx="1581.82" cy="188.62" r="3.34"/><circle class="cls-43" cx="1620.58" cy="198.76" r="3.34"/><circle class="cls-43" cx="1338.9" cy="156.85" r="3.34"/><circle class="cls-43" cx="1377.66" cy="166.98" r="3.34"/><circle class="cls-43" cx="1416.42" cy="177.12" r="3.34"/><circle class="cls-43" cx="1456.48" cy="187.59" r="3.34"/><circle class="cls-43" cx="1495.24" cy="197.73" r="3.34"/><circle class="cls-43" cx="1535.29" cy="208.2" r="3.34"/><circle class="cls-43" cx="1574.05" cy="218.34" r="3.34"/><circle class="cls-43" cx="1612.81" cy="228.48" r="3.34"/><circle class="cls-43" cx="1331.47" cy="185.27" r="3.34"/><circle class="cls-43" cx="1370.23" cy="195.41" r="3.34"/><circle class="cls-43" cx="1408.99" cy="205.55" r="3.34"/><circle class="cls-43" cx="1449.04" cy="216.02" r="3.34"/><circle class="cls-43" cx="1487.8" cy="226.16" r="3.34"/><circle class="cls-43" cx="1527.86" cy="236.63" r="3.34"/><circle class="cls-43" cx="1566.62" cy="246.77" r="3.34"/><circle class="cls-43" cx="1605.38" cy="256.9" r="3.34"/><circle class="cls-43" cx="1323.7" cy="214.99" r="3.34"/><circle class="cls-43" cx="1362.46" cy="225.13" r="3.34"/><circle class="cls-43" cx="1401.22" cy="235.26" r="3.34"/><circle class="cls-43" cx="1441.27" cy="245.74" r="3.34"/><circle class="cls-43" cx="1480.03" cy="255.87" r="3.34"/><circle class="cls-43" cx="1520.09" cy="266.35" r="3.34"/><circle class="cls-43" cx="1558.85" cy="276.48" r="3.34"/><circle class="cls-43" cx="1597.61" cy="286.62" r="3.34"/><rect class="cls-22" x="553.56" y="116.8" width="598.1" height="241.93" transform="translate(-23.19 109.5) rotate(-7.25)"/><line class="cls-3" x1="1109.68" y1="159.19" x2="986.47" y2="174.86"/><line class="cls-3" x1="1114.54" y1="197.36" x2="991.32" y2="213.03"/><line class="cls-3" x1="1021.92" y1="127.26" x2="1037.6" y2="250.47"/><line class="cls-3" x1="1063.59" y1="122.29" x2="1079.27" y2="245.51"/><text class="cls-17" transform="translate(1103.04 150.9) rotate(172.75) scale(1 -1)"><tspan x="0" y="0">x</tspan></text><text class="cls-17" transform="translate(1063.38 197.99) rotate(172.75) scale(1 -1)"><tspan x="0" y="0">x</tspan></text><text class="cls-17" transform="translate(1024.34 246.06) rotate(172.75) scale(1 -1)"><tspan x="0" y="0">x</tspan></text><text class="cls-17" transform="translate(1014.51 161.42) rotate(172.75) scale(1 -1)"><tspan x="0" y="0">x</tspan></text><text class="cls-15" transform="translate(1060.93 155.75) rotate(172.75) scale(1 -1)"><tspan x="0" y="0">o</tspan></text><text class="cls-15" transform="translate(1024.19 203.19) rotate(172.75) scale(1 -1)"><tspan x="0" y="0">o</tspan></text><text class="cls-15" transform="translate(1115.55 232.88) rotate(172.75) scale(1 -1)"><tspan x="0" y="0">o</tspan></text><text class="cls-15" transform="translate(1109.72 191.46) rotate(172.75) scale(1 -1)"><tspan x="0" y="0">o</tspan></text><line class="cls-3" x1="1105.57" y1="115.61" x2="975.73" y2="246.92"/><line class="cls-4" x1="972.1" y1="135" x2="946.85" y2="138.21"/><line class="cls-4" x1="975" y1="157.84" x2="949.77" y2="161.18"/><line class="cls-4" x1="946.85" y1="138.21" x2="949.75" y2="161.05"/><line class="cls-4" x1="972.1" y1="135" x2="975" y2="157.84"/><text class="cls-16" transform="translate(966.77 151.94) rotate(172.75) scale(1 -1)"><tspan x="0" y="0">x</tspan></text><line class="cls-3" x1="922.67" y1="183.1" x2="799.45" y2="198.77"/><line class="cls-3" x1="927.52" y1="221.27" x2="804.31" y2="236.94"/><line class="cls-3" x1="834.9" y1="151.16" x2="850.58" y2="274.38"/><line class="cls-3" x1="876.58" y1="146.2" x2="892.25" y2="269.42"/><line class="cls-4" x1="785.08" y1="158.91" x2="759.83" y2="162.12"/><line class="cls-4" x1="787.99" y1="181.75" x2="762.75" y2="185.09"/><line class="cls-4" x1="759.83" y1="162.12" x2="762.74" y2="184.96"/><line class="cls-4" x1="785.08" y1="158.91" x2="787.99" y2="181.75"/><line class="cls-3" x1="740.87" y1="206.22" x2="617.65" y2="221.9"/><line class="cls-3" x1="745.73" y1="244.4" x2="622.51" y2="260.07"/><line class="cls-3" x1="653.11" y1="174.29" x2="668.78" y2="297.51"/><line class="cls-3" x1="694.78" y1="169.33" x2="710.46" y2="292.55"/><line class="cls-4" x1="603.28" y1="182.03" x2="578.03" y2="185.24"/><line class="cls-4" x1="606.19" y1="204.88" x2="580.96" y2="208.22"/><line class="cls-4" x1="578.03" y1="185.24" x2="580.94" y2="208.09"/><line class="cls-4" x1="603.28" y1="182.03" x2="606.19" y2="204.88"/><rect class="cls-23" x="104.4" y="118.2" width="407.6" height="227.9" transform="translate(73.65 -74.23) rotate(15.58)"/><text class="cls-25" transform="translate(149.41 109.25) rotate(15.16)"><tspan x="0" y="0">NOMBRE - CO</tspan><tspan class="cls-53" x="129.68" y="0">L</tspan><tspan x="140.58" y="0">ORES- COMI</tspan><tspan class="cls-32" x="254.5" y="0">D</tspan><tspan x="268.52" y="0">AS- MUNDI</tspan></text><line class="cls-10" x1="238.72" y1="136.91" x2="199.97" y2="279.95"/><line class="cls-10" x1="339.77" y1="164.29" x2="301.03" y2="307.32"/><line class="cls-10" x1="433.05" y1="189.55" x2="394.31" y2="332.59"/><line class="cls-10" x1="510.79" y1="210.61" x2="472.05" y2="353.64"/><line class="cls-10" x1="153.21" y1="113.75" x2="114.47" y2="256.79"/><rect class="cls-22" x="1985.76" y=".44" width="195.97" height="484.48" transform="translate(1463.65 2246.76) rotate(-79.45)"/><line class="cls-3" x1="2301.47" y1="245.73" x2="2202.56" y2="227.31"/><line class="cls-3" x1="2295.77" y1="276.38" x2="2196.85" y2="257.95"/><line class="cls-3" x1="2241.69" y1="199.37" x2="2223.27" y2="298.29"/><line class="cls-3" x1="2275.06" y1="205.87" x2="2256.64" y2="304.78"/><text class="cls-20" transform="translate(2298.51 237.65) rotate(-169.45) scale(1 -1)"><tspan x="0" y="0">x</tspan></text><text class="cls-20" transform="translate(2256.23 264.15) rotate(-169.45) scale(1 -1)"><tspan x="0" y="0">x</tspan></text><text class="cls-20" transform="translate(2214.2 291.55) rotate(-169.45) scale(1 -1)"><tspan x="0" y="0">x</tspan></text><text class="cls-20" transform="translate(2227.6 223.85) rotate(-169.45) scale(1 -1)"><tspan x="0" y="0">x</tspan></text><text class="cls-19" transform="translate(2264.8 230.97) rotate(-169.45) scale(1 -1)"><tspan x="0" y="0">o</tspan></text><text class="cls-19" transform="translate(2224.72 258.46) rotate(-169.45) scale(1 -1)"><tspan x="0" y="0">o</tspan></text><text class="cls-19" transform="translate(2287.82 303.98) rotate(-169.45) scale(1 -1)"><tspan x="0" y="0">o</tspan></text><text class="cls-19" transform="translate(2293.58 270.6) rotate(-169.45) scale(1 -1)"><tspan x="0" y="0">o</tspan></text><line class="cls-3" x1="2309.09" y1="211.11" x2="2176.44" y2="280.23"/><line class="cls-4" x1="2201.35" y1="193.01" x2="2181.08" y2="189.23"/><line class="cls-4" x1="2197.93" y1="211.35" x2="2177.64" y2="207.67"/><line class="cls-4" x1="2181.08" y1="189.23" x2="2177.66" y2="207.57"/><line class="cls-4" x1="2201.35" y1="193.01" x2="2197.93" y2="211.35"/><text class="cls-21" transform="translate(2193.13 204.71) rotate(-169.45) scale(1 -1)"><tspan x="0" y="0">x</tspan></text><line class="cls-3" x1="2151.31" y1="217.87" x2="2052.4" y2="199.44"/><line class="cls-3" x1="2145.61" y1="248.51" x2="2046.69" y2="230.09"/><line class="cls-3" x1="2091.53" y1="171.5" x2="2073.11" y2="270.42"/><line class="cls-3" x1="2124.9" y1="178" x2="2106.48" y2="276.91"/><line class="cls-4" x1="2051.19" y1="165.14" x2="2030.92" y2="161.36"/><line class="cls-4" x1="2047.77" y1="183.48" x2="2027.49" y2="179.8"/><line class="cls-4" x1="2030.92" y1="161.36" x2="2027.5" y2="179.7"/><line class="cls-4" x1="2051.19" y1="165.14" x2="2047.77" y2="183.48"/><line class="cls-3" x1="2005.38" y1="190.69" x2="1906.46" y2="172.26"/><line class="cls-3" x1="1999.67" y1="221.33" x2="1900.76" y2="202.91"/><line class="cls-3" x1="1945.59" y1="144.32" x2="1927.17" y2="243.24"/><line class="cls-3" x1="1978.96" y1="150.82" x2="1960.54" y2="249.73"/><line class="cls-4" x1="1905.25" y1="137.96" x2="1884.98" y2="134.18"/><line class="cls-4" x1="1901.84" y1="156.3" x2="1881.55" y2="152.62"/><line class="cls-4" x1="1884.98" y1="134.18" x2="1881.57" y2="152.52"/><line class="cls-4" x1="1905.25" y1="137.96" x2="1901.84" y2="156.3"/><rect class="cls-23" x="1480.88" y="153.74" width="407.6" height="227.9" transform="translate(-20.36 319.25) rotate(-10.76)"/><text class="cls-26" transform="translate(1487.68 228.25) rotate(-11.18)"><tspan x="0" y="0">NOMBRE - CO</tspan><tspan class="cls-54" x="129.68" y="0">L</tspan><tspan class="cls-52" x="140.58" y="0">ORES- COMI</tspan><tspan class="cls-55" x="254.5" y="0">D</tspan><tspan x="268.52" y="0">AS- MUNDI</tspan></text><line class="cls-10" x1="1580.16" y1="213.16" x2="1608.89" y2="358.53"/><line class="cls-10" x1="1682.87" y1="192.86" x2="1711.6" y2="338.23"/><line class="cls-10" x1="1777.68" y1="174.12" x2="1806.41" y2="319.49"/><line class="cls-10" x1="1856.69" y1="158.5" x2="1885.42" y2="303.88"/><line class="cls-10" x1="1493.25" y1="230.34" x2="1521.99" y2="375.71"/><g id="IMG"><rect class="cls-42" x="4" y="191" width="2361.89" height="518.07"/></g><g class="cls-51"><circle class="cls-9" cx="17.04" cy="430.47" r="9.49"/><circle class="cls-9" cx="130.96" cy="430.47" r="9.49"/><circle class="cls-9" cx="244.87" cy="430.47" r="9.49"/><circle class="cls-9" cx="362.59" cy="430.47" r="9.49"/><circle class="cls-9" cx="476.51" cy="430.47" r="9.49"/><circle class="cls-9" cx="594.22" cy="430.47" r="9.49"/><circle class="cls-9" cx="708.14" cy="430.47" r="9.49"/><circle class="cls-9" cx="822.05" cy="430.47" r="9.49"/><circle class="cls-9" cx="17.04" cy="517.8" r="9.49"/><circle class="cls-9" cx="130.96" cy="517.8" r="9.49"/><circle class="cls-9" cx="244.87" cy="517.8" r="9.49"/><circle class="cls-9" cx="362.59" cy="517.8" r="9.49"/><circle class="cls-9" cx="476.51" cy="517.8" r="9.49"/><circle class="cls-9" cx="594.22" cy="517.8" r="9.49"/><circle class="cls-9" cx="708.14" cy="517.8" r="9.49"/><circle class="cls-9" cx="822.05" cy="517.8" r="9.49"/><circle class="cls-9" cx="17.04" cy="601.34" r="9.49"/><circle class="cls-9" cx="130.96" cy="601.34" r="9.49"/><circle class="cls-9" cx="244.87" cy="601.34" r="9.49"/><circle class="cls-9" cx="362.59" cy="601.34" r="9.49"/><circle class="cls-9" cx="476.51" cy="601.34" r="9.49"/><circle class="cls-9" cx="594.22" cy="601.34" r="9.49"/><circle class="cls-9" cx="708.14" cy="601.34" r="9.49"/><circle class="cls-9" cx="822.05" cy="601.34" r="9.49"/><circle class="cls-9" cx="17.04" cy="688.68" r="9.49"/><circle class="cls-9" cx="130.96" cy="688.68" r="9.49"/><circle class="cls-9" cx="244.87" cy="688.68" r="9.49"/><circle class="cls-9" cx="362.59" cy="688.68" r="9.49"/><circle class="cls-9" cx="476.51" cy="688.68" r="9.49"/><circle class="cls-9" cx="594.22" cy="688.68" r="9.49"/><circle class="cls-9" cx="708.14" cy="688.68" r="9.49"/><circle class="cls-9" cx="822.05" cy="688.68" r="9.49"/></g><g class="cls-51"><circle class="cls-9" cx="925.36" cy="428.96" r="9.49"/><circle class="cls-9" cx="1039.28" cy="428.96" r="9.49"/><circle class="cls-9" cx="1153.2" cy="428.96" r="9.49"/><circle class="cls-9" cx="1270.91" cy="428.96" r="9.49"/><circle class="cls-9" cx="1384.83" cy="428.96" r="9.49"/><circle class="cls-9" cx="1502.54" cy="428.96" r="9.49"/><circle class="cls-9" cx="1616.46" cy="428.96" r="9.49"/><circle class="cls-9" cx="1730.37" cy="428.96" r="9.49"/><circle class="cls-9" cx="925.36" cy="516.3" r="9.49"/><circle class="cls-9" cx="1039.28" cy="516.3" r="9.49"/><circle class="cls-9" cx="1153.2" cy="516.3" r="9.49"/><circle class="cls-9" cx="1270.91" cy="516.3" r="9.49"/><circle class="cls-9" cx="1384.83" cy="516.3" r="9.49"/><circle class="cls-9" cx="1502.54" cy="516.3" r="9.49"/><circle class="cls-9" cx="1616.46" cy="516.3" r="9.49"/><circle class="cls-9" cx="1730.37" cy="516.3" r="9.49"/><circle class="cls-9" cx="925.36" cy="599.83" r="9.49"/><circle class="cls-9" cx="1039.28" cy="599.83" r="9.49"/><circle class="cls-9" cx="1153.2" cy="599.83" r="9.49"/><circle class="cls-9" cx="1270.91" cy="599.83" r="9.49"/><circle class="cls-9" cx="1384.83" cy="599.83" r="9.49"/><circle class="cls-9" cx="1502.54" cy="599.83" r="9.49"/><circle class="cls-9" cx="1616.46" cy="599.83" r="9.49"/><circle class="cls-9" cx="1730.37" cy="599.83" r="9.49"/><circle class="cls-9" cx="925.36" cy="687.17" r="9.49"/><circle class="cls-9" cx="1039.28" cy="687.17" r="9.49"/><circle class="cls-9" cx="1153.2" cy="687.17" r="9.49"/><circle class="cls-9" cx="1270.91" cy="687.17" r="9.49"/><circle class="cls-9" cx="1384.83" cy="687.17" r="9.49"/><circle class="cls-9" cx="1502.54" cy="687.17" r="9.49"/><circle class="cls-9" cx="1616.46" cy="687.17" r="9.49"/><circle class="cls-9" cx="1730.37" cy="687.17" r="9.49"/></g><g class="cls-31"><rect class="cls-42" x="-13" y="137" width="2372" height="343"/><g class="cls-49"><line class="cls-2" x1="354.04" y1="219.97" x2="43.18" y2="180.42"/><line class="cls-2" x1="366.29" y1="123.67" x2="55.43" y2="84.13"/><line class="cls-2" x1="132.62" y1="300.53" x2="172.17" y2="-10.33"/><line class="cls-2" x1="237.76" y1="313.05" x2="277.31" y2="2.19"/><text class="cls-11" transform="translate(337.29 240.88) rotate(-172.75)"><tspan x="0" y="0">x</tspan></text><text class="cls-11" transform="translate(237.23 122.09) rotate(-172.75)"><tspan x="0" y="0">x</tspan></text><text class="cls-11" transform="translate(138.72 .81) rotate(-172.75)"><tspan x="0" y="0">x</tspan></text><text class="cls-11" transform="translate(113.93 214.34) rotate(-172.75)"><tspan x="0" y="0">x</tspan></text><text class="cls-7" transform="translate(231.04 228.64) rotate(-172.75)"><tspan x="0" y="0">o</tspan></text><text class="cls-7" transform="translate(138.34 108.96) rotate(-172.75)"><tspan x="0" y="0">o</tspan></text><text class="cls-7" transform="translate(368.84 34.06) rotate(-172.75)"><tspan x="0" y="0">o</tspan></text><text class="cls-7" transform="translate(354.12 138.56) rotate(-172.75)"><tspan x="0" y="0">o</tspan></text><line class="cls-2" x1="343.66" y1="329.91" x2="16.1" y2="-1.36"/></g><g class="cls-50"><line class="cls-2" x1="1087.14" y1="281.9" x2="1168.4" y2="-356.86"/><line class="cls-2" x1="1285.02" y1="307.07" x2="1366.28" y2="-331.69"/><line class="cls-2" x1="895.88" y1="42.97" x2="1534.64" y2="124.23"/><text class="cls-5" transform="translate(1044.18 247.48) rotate(-82.75)"><tspan x="0" y="0">x</tspan></text><text class="cls-5" transform="translate(1288.27 41.88) rotate(-82.75)"><tspan x="0" y="0">x</tspan></text><text class="cls-13" transform="translate(1069.32 29.16) rotate(-82.75)"><tspan x="0" y="0">o</tspan></text><text class="cls-13" transform="translate(1469.15 312.31) rotate(-82.75)"><tspan x="0" y="0">o</tspan></text><text class="cls-13" transform="translate(1254.42 282.07) rotate(-82.75)"><tspan x="0" y="0">o</tspan></text><line class="cls-2" x1="861.24" y1="260.56" x2="1541.93" y2="-412.51"/></g></g><line class="cls-12" x1="2289.88" y1="362.98" x2="1889.76" y2="413.89"/><line class="cls-12" x1="2305.65" y1="486.93" x2="1905.53" y2="537.84"/><line class="cls-12" x1="2004.89" y1="259.29" x2="2055.79" y2="659.41"/><line class="cls-12" x1="2140.21" y1="243.18" x2="2191.12" y2="643.3"/><text class="cls-8" transform="translate(2268.32 336.07) rotate(172.75) scale(1 -1)"><tspan x="0" y="0">x</tspan></text><text class="cls-8" transform="translate(2139.54 488.97) rotate(172.75) scale(1 -1)"><tspan x="0" y="0">x</tspan></text><text class="cls-8" transform="translate(2012.74 645.07) rotate(172.75) scale(1 -1)"><tspan x="0" y="0">x</tspan></text><text class="cls-8" transform="translate(1980.83 370.24) rotate(172.75) scale(1 -1)"><tspan x="0" y="0">x</tspan></text><text class="cls-6" transform="translate(2131.57 351.82) rotate(172.75) scale(1 -1)"><tspan x="0" y="0">o</tspan></text><text class="cls-6" transform="translate(2012.25 505.87) rotate(172.75) scale(1 -1)"><tspan x="0" y="0">o</tspan></text><text class="cls-6" transform="translate(2308.93 602.28) rotate(172.75) scale(1 -1)"><tspan x="0" y="0">o</tspan></text><text class="cls-6" transform="translate(2289.99 467.76) rotate(172.75) scale(1 -1)"><tspan x="0" y="0">o</tspan></text><line class="cls-12" x1="2276.52" y1="221.48" x2="1854.9" y2="647.87"/><text class="cls-41" transform="translate(58.98 350.91)"><tspan class="cls-36" x="0" y="0">“¿Sabes cuál es mi par</tspan><tspan class="cls-34" x="734.01" y="0">t</tspan><tspan class="cls-36" x="758.82" y="0">e </tspan><tspan class="cls-27" x="817.6" y="0">f</tspan><tspan class="cls-24" x="847.88" y="0">a</tspan><tspan class="cls-29" x="890.57" y="0">v</tspan><tspan class="cls-27" x="929.18" y="0">orita </tspan><tspan class="cls-35" x="1110.13" y="0">del </tspan><tspan class="cls-27" x="1228.3" y="0">ju</tspan><tspan class="cls-30" x="1288.04" y="0">e</tspan><tspan class="cls-28" x="1328.58" y="0">g</tspan><tspan class="cls-27" x="1371.42" y="0">o</tspan><tspan class="cls-36" x="1414.66" y="0">?</tspan></text><text class="cls-33" transform="translate(71.6 488.97)"><tspan class="cls-18" x="0" y="0" xml:space="preserve"> La oportunidad de </tspan><tspan class="cls-27" x="1351.85" y="0">JUGAR</tspan><tspan class="cls-14" x="1822.92" y="0">.” </tspan></text><text class="cls-44" transform="translate(830.63 598.62)"><tspan class="cls-47" x="0" y="0">Mi</tspan><tspan class="cls-46" x="56.4" y="0">k</tspan><tspan class="cls-48" x="84.18" y="0">e Sing</tspan><tspan class="cls-45" x="235.14" y="0">l</tspan><tspan class="cls-48" x="245.34" y="0">etary</tspan></text><path class="cls-38" d="m1596.52,267.19c2.76-16.99,18.71-28.54,35.63-25.79,16.92,2.75,56.41,117.77,52.21,122.18-6.83,7.16-90.6-79.39-87.84-96.39Z"/><path class="cls-38" d="m1757.34,261.56c11.71-.82,21.85,8.05,22.65,19.81.8,11.76-69.46,56.28-73.04,54.15-5.81-3.45,38.67-73.15,50.38-73.97Z"/></svg>