<svg id="Layer_1" data-name="Layer 1" xmlns="http://www.w3.org/2000/svg" xmlns:xlink="http://www.w3.org/1999/xlink" viewBox="0 0 400 111.55"><defs><style>.cls-1,.cls-5,.cls-7,.cls-9{fill:none;}.cls-2{clip-path:url(#clip-path);}.cls-3{fill:#00cbcb;}.cls-4{opacity:0.42;}.cls-5{stroke:#6697ca;}.cls-10,.cls-11,.cls-5,.cls-7{stroke-miterlimit:10;}.cls-12,.cls-6{fill:#fff;}.cls-10,.cls-11,.cls-6,.cls-7,.cls-9{stroke:#fff;}.cls-6,.cls-9{stroke-linecap:round;stroke-linejoin:round;}.cls-8{opacity:0.31;}.cls-10{fill:#2e67b1;}.cls-11{fill:#fccb98;}.cls-12{font-size:35.78px;font-family:AveriaSansLibre-Bold, Averia Sans Libre;font-weight:700;letter-spacing:0.07em;}.cls-13{letter-spacing:0.07em;}.cls-14{letter-spacing:0.07em;}</style><clipPath id="clip-path"><rect class="cls-1" x="142.8" y="-148.05" width="114.4" height="405.31" transform="translate(254.61 -145.39) rotate(90)"/></clipPath></defs><title>categorias</title><g class="cls-2"><rect class="cls-3" x="-101.55" y="-42.91" width="584.84" height="423.33" transform="translate(359.63 -22.11) rotate(90)"/><g class="cls-4"><rect class="cls-5" x="248.47" y="-146.75" width="166.72" height="412.17" transform="translate(-4.83 42.35) rotate(-7.25)"/><line class="cls-6" x1="369.51" y1="107.61" x2="358.71" y2="22.7"/><line class="cls-6" x1="343.2" y1="110.96" x2="332.4" y2="26.05"/><line class="cls-6" x1="391.51" y1="47.13" x2="306.6" y2="57.93"/><line class="cls-6" x1="394.93" y1="75.85" x2="310.02" y2="86.65"/><line class="cls-6" x1="386.18" y1="12.8" x2="383.96" y2="-4.6"/><line class="cls-6" x1="370.44" y1="14.8" x2="368.13" y2="-2.59"/><line class="cls-6" x1="386.18" y1="12.8" x2="370.44" y2="14.8"/></g><path class="cls-7" d="M425.19,50.85s-19.8,175.58-171.08,93.83"/><g class="cls-8"><rect class="cls-5" x="-193.37" y="119.55" width="412.17" height="166.72" transform="translate(-190.18 189.92) rotate(-82.75)"/><line class="cls-9" x1="66.87" y1="25.75" x2="56.06" y2="110.66"/><line class="cls-9" x1="40.56" y1="22.41" x2="29.76" y2="107.32"/><line class="cls-9" x1="88.87" y1="86.23" x2="3.96" y2="75.43"/><line class="cls-9" x1="92.29" y1="57.51" x2="7.38" y2="46.71"/><path class="cls-10" d="M88.49,34.59a1.52,1.52,0,0,1-.8,1.18L73.16,44.6a1.43,1.43,0,0,1-1,.22,1.45,1.45,0,0,1-1-.63,1.54,1.54,0,0,1,.49-2.32L86.17,33a1.46,1.46,0,0,1,1-.22,1.48,1.48,0,0,1,1.06.62A1.55,1.55,0,0,1,88.49,34.59Zm-16.29-2a1.6,1.6,0,0,1,.53-1,1.22,1.22,0,0,1,1-.37,1.45,1.45,0,0,1,.9.49l5.43,5.67-2.75,1.25-4.67-4.76A1.49,1.49,0,0,1,72.2,32.55Zm15,12.54a1.46,1.46,0,0,1-.55,1,1.33,1.33,0,0,1-1,.3,1.87,1.87,0,0,1-.5-.14,1.56,1.56,0,0,1-.47-.36l-5.4-5.6L81.7,39l4.91,4.82A1.54,1.54,0,0,1,87.16,45.09Z"/><path class="cls-10" d="M56,61.92a1.52,1.52,0,0,1-.8,1.18L40.71,71.93a1.37,1.37,0,0,1-1,.22,1.41,1.41,0,0,1-1-.63,1.56,1.56,0,0,1-.33-1.14,1.61,1.61,0,0,1,.81-1.18l14.5-8.83a1.46,1.46,0,0,1,1-.22,1.48,1.48,0,0,1,1.06.62A1.52,1.52,0,0,1,56,61.92Zm-16.29-2a1.6,1.6,0,0,1,.53-1,1.23,1.23,0,0,1,1-.37,1.46,1.46,0,0,1,.91.5l5.42,5.66L44.9,66l-4.66-4.76A1.5,1.5,0,0,1,39.75,59.88Zm15,12.55a1.5,1.5,0,0,1-.55,1,1.32,1.32,0,0,1-1,.29,2,2,0,0,1-.5-.14,1.69,1.69,0,0,1-.47-.36l-5.39-5.6,2.47-1.34,4.91,4.81A1.52,1.52,0,0,1,54.71,72.43Z"/><path class="cls-10" d="M22.92,88.83A1.53,1.53,0,0,1,22.11,90L7.58,98.84a1.35,1.35,0,0,1-1,.22,1.41,1.41,0,0,1-1-.63,1.55,1.55,0,0,1-.32-1.14,1.6,1.6,0,0,1,.8-1.18l14.5-8.83a1.5,1.5,0,0,1,2,.4A1.57,1.57,0,0,1,22.92,88.83Zm-16.3-2a1.66,1.66,0,0,1,.53-1,1.29,1.29,0,0,1,1-.37,1.47,1.47,0,0,1,.9.5l5.42,5.66-2.75,1.25L7.11,88.1A1.5,1.5,0,0,1,6.62,86.79Zm15,12.55a1.46,1.46,0,0,1-.55,1,1.32,1.32,0,0,1-1,.29,1.81,1.81,0,0,1-.49-.14,1.32,1.32,0,0,1-.47-.36l-5.4-5.6,2.48-1.34L21,98A1.52,1.52,0,0,1,21.58,99.34Z"/><path class="cls-10" d="M81.24,95.6a1.5,1.5,0,0,1-.8,1.18l-14.53,8.83a1.39,1.39,0,0,1-1,.22,1.43,1.43,0,0,1-1-.63,1.54,1.54,0,0,1,.48-2.31l14.5-8.84a1.5,1.5,0,0,1,1-.22,1.52,1.52,0,0,1,1.06.62A1.61,1.61,0,0,1,81.24,95.6ZM65,93.56a1.64,1.64,0,0,1,.52-1,1.25,1.25,0,0,1,1-.36,1.36,1.36,0,0,1,.9.49l5.42,5.67L70.1,99.63l-4.67-4.75A1.52,1.52,0,0,1,65,93.56Zm15,12.55a1.48,1.48,0,0,1-.55,1,1.35,1.35,0,0,1-1,.29,1.87,1.87,0,0,1-.5-.14,1.29,1.29,0,0,1-.47-.36l-5.4-5.6L74.45,100l4.91,4.82A1.57,1.57,0,0,1,79.91,106.11Z"/><path class="cls-11" d="M75,78.05a8.59,8.59,0,0,1-4.21-1.63,8,8,0,0,1-2.59-3.3,8.64,8.64,0,0,1,1.06-8.33,8,8,0,0,1,3.34-2.57,9.3,9.3,0,0,1,8.71,1.11A8.16,8.16,0,0,1,84,66.66a8.06,8.06,0,0,1,.56,4.3,8.17,8.17,0,0,1-1.62,4,8.06,8.06,0,0,1-3.35,2.55A8.74,8.74,0,0,1,75,78.05ZM75.42,75a6.1,6.1,0,0,0,3-.3,5.21,5.21,0,0,0,2.18-1.59,4.87,4.87,0,0,0,1-2.48,5,5,0,0,0-.37-2.68,5.14,5.14,0,0,0-1.72-2.1,6.64,6.64,0,0,0-5.82-.74,5.07,5.07,0,0,0-2.2,1.6,4.93,4.93,0,0,0-1,2.5,4.81,4.81,0,0,0,.38,2.66,5.12,5.12,0,0,0,1.73,2.09A6,6,0,0,0,75.42,75Z"/><path class="cls-11" d="M42.33,103.37a8.56,8.56,0,0,1-4.2-1.63,8,8,0,0,1-2.59-3.3,8.17,8.17,0,0,1-.55-4.3,8.28,8.28,0,0,1,1.6-4,8.05,8.05,0,0,1,3.34-2.56,9.27,9.27,0,0,1,8.72,1.1,8.16,8.16,0,0,1,3.17,7.63,8.05,8.05,0,0,1-5,6.57A8.66,8.66,0,0,1,42.33,103.37Zm.4-3.08a6.16,6.16,0,0,0,3-.3,5.18,5.18,0,0,0,2.19-1.59,5.1,5.1,0,0,0,.65-5.16,5,5,0,0,0-1.71-2.1,6.65,6.65,0,0,0-5.82-.74,5,5,0,0,0-2.2,1.6,5.15,5.15,0,0,0-.66,5.16,5.14,5.14,0,0,0,1.74,2.09A6.13,6.13,0,0,0,42.73,100.29Z"/><path class="cls-11" d="M21.87,40.41a8.69,8.69,0,0,1-4.2-1.63,7.91,7.91,0,0,1-2.59-3.31,8.63,8.63,0,0,1,1.06-8.32,8.06,8.06,0,0,1,3.33-2.57A8.58,8.58,0,0,1,24,24a8.57,8.57,0,0,1,4.23,1.65,8.24,8.24,0,0,1-1.8,14.2A8.76,8.76,0,0,1,21.87,40.41Zm.4-3.08a6.1,6.1,0,0,0,3-.31,5.11,5.11,0,0,0,2.18-1.58,4.86,4.86,0,0,0,1-2.49,5,5,0,0,0-.37-2.68,5.12,5.12,0,0,0-1.72-2.09,6.56,6.56,0,0,0-5.82-.74,5,5,0,0,0-2.2,1.6,5.15,5.15,0,0,0-.66,5.16,5.12,5.12,0,0,0,1.74,2.08A6,6,0,0,0,22.27,37.33Z"/><path class="cls-11" d="M50.42,44.43a8.65,8.65,0,0,1-4.2-1.63,7.91,7.91,0,0,1-2.59-3.31A8.29,8.29,0,0,1,48,28.6a9.31,9.31,0,0,1,8.72,1.11,8.24,8.24,0,0,1-1.8,14.2A8.76,8.76,0,0,1,50.42,44.43Zm.4-3.08a6,6,0,0,0,3-.31A5.08,5.08,0,0,0,56,39.46a4.86,4.86,0,0,0,1-2.49A5,5,0,0,0,55,32.2a6.56,6.56,0,0,0-5.82-.74,5,5,0,0,0-2.2,1.6,5.15,5.15,0,0,0-.66,5.16A5.12,5.12,0,0,0,48,40.3,6,6,0,0,0,50.82,41.35Z"/><line class="cls-9" x1="96.89" y1="28.59" x2="6.41" y2="118.06"/></g><text class="cls-12" transform="translate(74.99 65.45)">Lápiz y pap<tspan class="cls-13" x="210.28" y="0">e</tspan><tspan class="cls-14" x="231.41" y="0">l</tspan></text></g></svg>