<svg id="Layer_1" data-name="Layer 1" xmlns="http://www.w3.org/2000/svg" xmlns:xlink="http://www.w3.org/1999/xlink" viewBox="0 0 400 280"><defs><style>.cls-1,.cls-11,.cls-5,.cls-6{fill:none;}.cls-2{clip-path:url(#clip-path);}.cls-3,.cls-7{fill:#2e67b1;}.cls-4{opacity:0.42;}.cls-5{stroke:#6697ca;}.cls-11,.cls-14,.cls-5,.cls-7,.cls-8,.cls-9{stroke-miterlimit:10;}.cls-10,.cls-11,.cls-14,.cls-6,.cls-7,.cls-8,.cls-9{stroke:#fff;}.cls-10,.cls-13,.cls-6{stroke-linecap:round;stroke-linejoin:round;}.cls-8{fill:#fccb98;}.cls-13,.cls-9{fill:#f69668;}.cls-10,.cls-12,.cls-14{fill:#fff;}.cls-13{stroke:#f69668;stroke-width:2px;}.cls-15{font-size:38.76px;fill:#36bec2;font-family:AveriaSansLibre-Bold, Averia Sans Libre;font-weight:700;letter-spacing:0.07em;}.cls-16{letter-spacing:0.07em;}.cls-17{font-size:50.69px;letter-spacing:0.02em;}.cls-18{letter-spacing:0.03em;}.cls-19{letter-spacing:0.03em;}</style><clipPath id="clip-path"><rect class="cls-1" x="58.34" y="-63.58" width="283.33" height="405.31" transform="translate(339.07 -60.93) rotate(90)"/></clipPath></defs><title>comoCrearJuego</title><g class="cls-2"><rect class="cls-3" x="-101.55" y="-42.91" width="584.84" height="423.33" transform="translate(359.63 -22.11) rotate(90)"/><g class="cls-4"><rect class="cls-5" x="248.47" y="-146.75" width="166.72" height="412.17" transform="translate(-4.83 42.35) rotate(-7.25)"/><line class="cls-6" x1="385.98" y1="236.49" x2="375.18" y2="151.58"/><line class="cls-6" x1="359.68" y1="239.84" x2="348.88" y2="154.92"/><line class="cls-6" x1="407.99" y1="176.01" x2="323.08" y2="186.81"/><line class="cls-6" x1="411.41" y1="204.73" x2="326.5" y2="215.53"/><path class="cls-7" d="M407.31,228.8a1.52,1.52,0,0,1-1.06.62,1.5,1.5,0,0,1-1-.22l-14.5-8.83a1.6,1.6,0,0,1-.8-1.19,1.57,1.57,0,0,1,.32-1.13,1.43,1.43,0,0,1,1-.63,1.39,1.39,0,0,1,1,.22l14.53,8.83a1.5,1.5,0,0,1,.8,1.18A1.61,1.61,0,0,1,407.31,228.8Zm-15.51-.42,4.67-4.76,2.74,1.25-5.42,5.66a1.36,1.36,0,0,1-.9.49,1.25,1.25,0,0,1-1.05-.36,1.71,1.71,0,0,1-.53-1A1.53,1.53,0,0,1,391.8,228.38Zm13.92-9.92-4.9,4.82-2.48-1.34,5.4-5.6a1.21,1.21,0,0,1,.47-.36,1.87,1.87,0,0,1,.5-.14,1.31,1.31,0,0,1,1,.29,1.4,1.4,0,0,1,.55,1A1.47,1.47,0,0,1,405.72,218.46Z"/><path class="cls-7" d="M374.86,201.47a1.48,1.48,0,0,1-1.06.62,1.46,1.46,0,0,1-1-.22L358.34,193a1.59,1.59,0,0,1-.81-1.19,1.57,1.57,0,0,1,.32-1.13,1.45,1.45,0,0,1,1-.63,1.37,1.37,0,0,1,1,.22l14.53,8.83a1.52,1.52,0,0,1,.8,1.18A1.56,1.56,0,0,1,374.86,201.47Zm-15.5-.42,4.66-4.76,2.75,1.25-5.42,5.66a1.4,1.4,0,0,1-.91.49,1.22,1.22,0,0,1-1-.36,1.6,1.6,0,0,1-.53-1A1.5,1.5,0,0,1,359.36,201.05Zm13.92-9.91L368.37,196l-2.47-1.34,5.39-5.6a1.29,1.29,0,0,1,.47-.36,1.87,1.87,0,0,1,.5-.14,1.32,1.32,0,0,1,1,.29,1.48,1.48,0,0,1,.55,1A1.55,1.55,0,0,1,373.28,191.14Z"/><path class="cls-7" d="M341.73,174.56a1.5,1.5,0,0,1-1.06.62,1.46,1.46,0,0,1-1-.22l-14.5-8.83a1.6,1.6,0,0,1-.8-1.19,1.52,1.52,0,0,1,.32-1.13,1.41,1.41,0,0,1,1-.63,1.35,1.35,0,0,1,1,.22l14.53,8.83a1.55,1.55,0,0,1,.81,1.18A1.57,1.57,0,0,1,341.73,174.56Zm-15.5-.42,4.66-4.76,2.75,1.25-5.42,5.66a1.4,1.4,0,0,1-.91.49,1.24,1.24,0,0,1-1-.36,1.66,1.66,0,0,1-.53-1A1.5,1.5,0,0,1,326.23,174.14Zm13.92-9.92-4.9,4.82-2.48-1.34,5.4-5.6a1.21,1.21,0,0,1,.47-.36,1.81,1.81,0,0,1,.49-.14,1.32,1.32,0,0,1,1,.29,1.44,1.44,0,0,1,.55,1A1.5,1.5,0,0,1,340.15,164.22Z"/><path class="cls-7" d="M400.05,167.79a1.5,1.5,0,0,1-2,.4l-14.5-8.84a1.54,1.54,0,0,1-.48-2.31,1.43,1.43,0,0,1,1-.63,1.35,1.35,0,0,1,1,.22l14.53,8.83a1.51,1.51,0,0,1,.81,1.18A1.57,1.57,0,0,1,400.05,167.79Zm-15.5-.42,4.67-4.76,2.74,1.24-5.42,5.67a1.4,1.4,0,0,1-.9.49,1.25,1.25,0,0,1-1.05-.36,1.66,1.66,0,0,1-.53-1A1.5,1.5,0,0,1,384.55,167.37Zm13.92-9.92-4.9,4.82-2.48-1.34,5.4-5.6A1.21,1.21,0,0,1,397,155a1.92,1.92,0,0,1,.49-.14,1.32,1.32,0,0,1,1,.29,1.4,1.4,0,0,1,.55,1A1.52,1.52,0,0,1,398.47,157.45Z"/><path class="cls-8" d="M398.66,184.71a8.05,8.05,0,0,1,5,6.57,8.26,8.26,0,0,1-.56,4.3,8.16,8.16,0,0,1-2.61,3.33,8.8,8.8,0,0,1-4.23,1.65,8.67,8.67,0,0,1-4.49-.55,8,8,0,0,1-3.33-2.56,8.64,8.64,0,0,1-1.06-8.33,8,8,0,0,1,2.59-3.3,8.56,8.56,0,0,1,4.2-1.63A8.66,8.66,0,0,1,398.66,184.71Zm-6.92,3.6A5.14,5.14,0,0,0,390,190.4a4.81,4.81,0,0,0-.37,2.66,4.93,4.93,0,0,0,1,2.5,5,5,0,0,0,2.2,1.6,6.65,6.65,0,0,0,5.82-.74,5,5,0,0,0,1.71-2.1,5.1,5.1,0,0,0-.65-5.16,5.18,5.18,0,0,0-2.19-1.59,6.66,6.66,0,0,0-5.81.74Z"/><path class="cls-8" d="M366,159.39a8.15,8.15,0,0,1,3.36,2.55,8.29,8.29,0,0,1-1.55,11.65,8.74,8.74,0,0,1-4.24,1.65,8.65,8.65,0,0,1-4.48-.55,8.13,8.13,0,0,1-3.34-2.56,8.28,8.28,0,0,1-1.6-4,8.17,8.17,0,0,1,.54-4.3,8,8,0,0,1,2.6-3.3,8.52,8.52,0,0,1,4.2-1.63A8.62,8.62,0,0,1,366,159.39ZM359,163a5.2,5.2,0,0,0-1.73,2.09,4.9,4.9,0,0,0-.38,2.66,5,5,0,0,0,3.24,4.1,6.65,6.65,0,0,0,5.82-.74,5,5,0,0,0,1.71-2.1,5.11,5.11,0,0,0-.65-5.16,5.18,5.18,0,0,0-2.19-1.59A6.68,6.68,0,0,0,359,163Z"/><path class="cls-8" d="M345.5,222.35a8.36,8.36,0,0,1,4.41,10.87,8.14,8.14,0,0,1-2.6,3.33,8.65,8.65,0,0,1-4.24,1.65,8.55,8.55,0,0,1-4.48-.54,8.46,8.46,0,0,1-4.4-10.9,8,8,0,0,1,2.59-3.3,9.44,9.44,0,0,1,8.72-1.11Zm-6.92,3.6a5.12,5.12,0,0,0-1.73,2.09,5.09,5.09,0,0,0,.66,5.16,5,5,0,0,0,2.2,1.6,6.65,6.65,0,0,0,5.82-.74,5.09,5.09,0,0,0,1.06-7.26,5.18,5.18,0,0,0-2.19-1.59,6.68,6.68,0,0,0-5.82.74Z"/><path class="cls-8" d="M374.05,218.33a8.36,8.36,0,0,1,4.41,10.87,8.14,8.14,0,0,1-2.6,3.33,9.28,9.28,0,0,1-8.72,1.1,8.05,8.05,0,0,1-3.34-2.56,8.71,8.71,0,0,1-1.06-8.33,8,8,0,0,1,2.6-3.3,8.52,8.52,0,0,1,4.2-1.63A8.72,8.72,0,0,1,374.05,218.33Zm-6.92,3.6A5.12,5.12,0,0,0,365.4,224a5.09,5.09,0,0,0,.66,5.16,5,5,0,0,0,2.2,1.6,6.65,6.65,0,0,0,5.82-.74,5,5,0,0,0,2.09-4.77,4.87,4.87,0,0,0-1-2.49,5.09,5.09,0,0,0-2.18-1.59,6.68,6.68,0,0,0-5.82.74Z"/><line class="cls-6" x1="416.01" y1="233.65" x2="325.53" y2="144.18"/><line class="cls-6" x1="402.65" y1="141.68" x2="400.44" y2="124.28"/><line class="cls-6" x1="386.91" y1="143.68" x2="384.61" y2="126.29"/><line class="cls-6" x1="400.44" y1="124.28" x2="384.7" y2="126.28"/><line class="cls-6" x1="402.65" y1="141.68" x2="386.91" y2="143.68"/><path class="cls-9" d="M397.8,136.65a.64.64,0,0,1-.47.27.65.65,0,0,1-.42-.09L390.56,133a.67.67,0,0,1-.35-.52.64.64,0,0,1,.14-.5.6.6,0,0,1,.44-.27.62.62,0,0,1,.42.09l6.37,3.87a.68.68,0,0,1,.35.52A.7.7,0,0,1,397.8,136.65Zm-6.79-.18,2-2.09,1.2.55-2.37,2.48a.63.63,0,0,1-.4.21.52.52,0,0,1-.46-.16.74.74,0,0,1-.23-.42A.65.65,0,0,1,391,136.47Zm6.09-4.35L395,134.24l-1.09-.59,2.36-2.46a.69.69,0,0,1,.21-.15.63.63,0,0,1,.22-.07.59.59,0,0,1,.44.13.63.63,0,0,1,.24.44A.64.64,0,0,1,397.1,132.12Z"/><line class="cls-10" x1="369.51" y1="107.61" x2="358.71" y2="22.7"/><line class="cls-10" x1="343.2" y1="110.96" x2="332.4" y2="26.05"/><line class="cls-10" x1="391.51" y1="47.13" x2="306.6" y2="57.93"/><line class="cls-10" x1="394.93" y1="75.85" x2="310.02" y2="86.65"/><line class="cls-10" x1="386.18" y1="12.8" x2="383.96" y2="-4.6"/><line class="cls-10" x1="370.44" y1="14.8" x2="368.13" y2="-2.59"/><line class="cls-10" x1="386.18" y1="12.8" x2="370.44" y2="14.8"/></g><path class="cls-11" d="M425.19,50.85s-19.8,175.58-171.08,93.83"/><polygon class="cls-12" points="259.63 147.42 251.18 158.98 245.4 145.88 239.61 132.79 253.84 134.33 268.08 135.86 259.63 147.42"/><path class="cls-13" d="M92,49.79a.75.75,0,0,1-.72.72,6.3,6.3,0,0,0-5.1,3.06,5.59,5.59,0,0,0-.76,2.88,6.54,6.54,0,0,0,.73,3.15,5.42,5.42,0,0,0,2,2.11,5.21,5.21,0,0,0,2.77.75A6.18,6.18,0,0,0,94,61.67a6.71,6.71,0,0,0,2.31-2,.78.78,0,0,1,.43-.32.63.63,0,0,1,.5.07.61.61,0,0,1,.38.45.85.85,0,0,1-.13.59,8.2,8.2,0,0,1-2.82,2.45,7.81,7.81,0,0,1-3.76,1,7.2,7.2,0,0,1-3.51-.88,6.52,6.52,0,0,1-2.56-2.52,7.85,7.85,0,0,1-.94-4,6.37,6.37,0,0,1,.57-2.61A8.13,8.13,0,0,1,86,51.49a8,8,0,0,1,2.35-1.68,6.54,6.54,0,0,1,2.86-.63c.09,0,0,0-.13.06a.78.78,0,0,0-.48.34V45a.68.68,0,0,1,.2-.5.61.61,0,0,1,.48-.22.66.66,0,0,1,.52.22A.61.61,0,0,1,92,45Zm-.75-12.27a.84.84,0,0,1,.73.31,1.25,1.25,0,0,1,.23.8v.82a1.27,1.27,0,0,1-.23.79.85.85,0,0,1-.73.32h-.15a.86.86,0,0,1-.71-.32,1.22,1.22,0,0,1-.25-.79v-.82a1.2,1.2,0,0,1,.25-.8.85.85,0,0,1,.71-.31Z"/><path class="cls-13" d="M111.79,39a12.19,12.19,0,0,1,3,.36,7.41,7.41,0,0,1,2.29.95c.59.39.88.8.88,1.23a.77.77,0,0,1-.2.49.62.62,0,0,1-.48.23.88.88,0,0,1-.63-.22,6.14,6.14,0,0,1-.48-.51,2.2,2.2,0,0,0-.79-.56,6,6,0,0,0-1.41-.43,11.78,11.78,0,0,0-2.24-.18A7,7,0,0,0,108,41.46a7.9,7.9,0,0,0-2.74,2.88,8.08,8.08,0,0,0-1,4.06,8.8,8.8,0,0,0,1,4.11,7.18,7.18,0,0,0,6.6,3.94,7.32,7.32,0,0,0,2.45-.31,8.23,8.23,0,0,0,1.45-.66,3.28,3.28,0,0,0,1-.82.83.83,0,0,1,.68-.39.61.61,0,0,1,.45.17.67.67,0,0,1,.16.47c0,.29-.26.66-.79,1.13a7.24,7.24,0,0,1-2.2,1.23,9.36,9.36,0,0,1-3.34.54,8.5,8.5,0,0,1-7.75-4.6,10.13,10.13,0,0,1-1.13-4.81,9.8,9.8,0,0,1,1.13-4.64,9.11,9.11,0,0,1,3.15-3.43A8.56,8.56,0,0,1,111.79,39Z"/><path class="cls-13" d="M141.34,48.43a10,10,0,0,1-1.14,4.78,8.81,8.81,0,0,1-3.13,3.36,8.86,8.86,0,0,1-9,0,8.81,8.81,0,0,1-3.16-3.36,10.41,10.41,0,0,1,0-9.59A8.81,8.81,0,0,1,128,40.26a8.86,8.86,0,0,1,9,0,8.81,8.81,0,0,1,3.13,3.36A10,10,0,0,1,141.34,48.43Zm-1.43,0A8.79,8.79,0,0,0,139,44.3a7.35,7.35,0,0,0-2.61-2.86,7.34,7.34,0,0,0-7.6,0,7.53,7.53,0,0,0-2.65,2.86,8.68,8.68,0,0,0-1,4.13,8.59,8.59,0,0,0,1,4.1,7.53,7.53,0,0,0,2.65,2.86,7.34,7.34,0,0,0,7.6,0A7.35,7.35,0,0,0,139,52.53,8.7,8.7,0,0,0,139.91,48.43Zm-8-10.87a.34.34,0,0,1-.29-.15.47.47,0,0,1-.11-.28,1,1,0,0,1,.18-.47l2.22-3.33a1.84,1.84,0,0,1,.34-.37.9.9,0,0,1,.59-.2,1,1,0,0,1,.66.22.81.81,0,0,1,.27.68.69.69,0,0,1-.07.34l-.18.27L132.83,37a5,5,0,0,1-.41.36A.84.84,0,0,1,131.9,37.56Z"/><path class="cls-13" d="M156.23,39.38a6.6,6.6,0,0,1,3.66,1.09,5.61,5.61,0,0,1,2.28,3.42l-.47.32.18-.68a5.06,5.06,0,0,1,1.63-2.11,9.55,9.55,0,0,1,2.61-1.48,7.81,7.81,0,0,1,2.81-.56,6.25,6.25,0,0,1,3.54.93,5.58,5.58,0,0,1,2.06,2.49,8.94,8.94,0,0,1,.66,3.52V56.73a.7.7,0,0,1-.2.5.65.65,0,0,1-.52.22.66.66,0,0,1-.52-.22.69.69,0,0,1-.19-.5V46.47a7.85,7.85,0,0,0-.52-2.88,4.52,4.52,0,0,0-1.61-2.08,4.87,4.87,0,0,0-2.85-.77,6.44,6.44,0,0,0-3,.77,7,7,0,0,0-2.42,2.08,4.8,4.8,0,0,0-.94,2.88V56.73a.7.7,0,0,1-.2.5.66.66,0,0,1-.52.22.65.65,0,0,1-.52-.22.7.7,0,0,1-.2-.5V46.29a7.7,7.7,0,0,0-.48-2.79,4.32,4.32,0,0,0-1.52-2,4.59,4.59,0,0,0-2.75-.75,6.13,6.13,0,0,0-2.92.75,6.89,6.89,0,0,0-2.34,2,4.55,4.55,0,0,0-.93,2.79V56.73a.68.68,0,0,1-.22.5.7.7,0,0,1-1,0,.69.69,0,0,1-.19-.5V40.31a.72.72,0,0,1,.71-.71.67.67,0,0,1,.52.21.72.72,0,0,1,.2.5v3.9L149,46a5.34,5.34,0,0,1,.61-2.44,8.06,8.06,0,0,1,1.63-2.13A8.47,8.47,0,0,1,153.52,40,6.73,6.73,0,0,1,156.23,39.38Z"/><path class="cls-13" d="M200.09,48.43a9.85,9.85,0,0,1-1.15,4.78,8.66,8.66,0,0,1-3.13,3.36,8.84,8.84,0,0,1-9,0,8.84,8.84,0,0,1-3.17-3.36,10.49,10.49,0,0,1,0-9.59,8.84,8.84,0,0,1,3.17-3.36,8.84,8.84,0,0,1,9,0,8.66,8.66,0,0,1,3.13,3.36A9.91,9.91,0,0,1,200.09,48.43Zm-1.43,0a8.79,8.79,0,0,0-.95-4.13,7.35,7.35,0,0,0-2.61-2.86,7.34,7.34,0,0,0-7.6,0,7.38,7.38,0,0,0-2.65,2.86,8.57,8.57,0,0,0-1,4.13,8.48,8.48,0,0,0,1,4.1,7.38,7.38,0,0,0,2.65,2.86,7.34,7.34,0,0,0,7.6,0,7.35,7.35,0,0,0,2.61-2.86A8.7,8.7,0,0,0,198.66,48.43Z"/><path class="cls-13" d="M227.35,39a12.27,12.27,0,0,1,3,.36,7.52,7.52,0,0,1,2.29.95,1.59,1.59,0,0,1,.87,1.23.72.72,0,0,1-.2.49.62.62,0,0,1-.48.23.84.84,0,0,1-.62-.22,4.85,4.85,0,0,1-.49-.51A2.15,2.15,0,0,0,231,41a6.22,6.22,0,0,0-1.42-.43,11.74,11.74,0,0,0-2.23-.18,7,7,0,0,0-3.8,1.08,7.87,7.87,0,0,0-2.73,2.88,8.08,8.08,0,0,0-1,4.06,8.79,8.79,0,0,0,.94,4.11,7.92,7.92,0,0,0,9.06,3.63,8.58,8.58,0,0,0,1.45-.66,3.22,3.22,0,0,0,1-.82.83.83,0,0,1,.68-.39.61.61,0,0,1,.45.17.67.67,0,0,1,.16.47c0,.29-.26.66-.79,1.13a7.12,7.12,0,0,1-2.2,1.23,9.32,9.32,0,0,1-3.34.54,8.5,8.5,0,0,1-7.75-4.6,10.13,10.13,0,0,1-1.12-4.81,9.79,9.79,0,0,1,1.12-4.64,9.11,9.11,0,0,1,3.15-3.43A8.56,8.56,0,0,1,227.35,39Z"/><path class="cls-13" d="M241.09,57.45a.66.66,0,0,1-.52-.22.69.69,0,0,1-.19-.5V40.31a.72.72,0,0,1,1.23-.5.72.72,0,0,1,.2.5v6l-.61.93a8.9,8.9,0,0,1,.48-2.83,9.33,9.33,0,0,1,1.41-2.66,7.45,7.45,0,0,1,2.28-2,6.11,6.11,0,0,1,3.09-.77,4.23,4.23,0,0,1,1.07.15.65.65,0,0,1,.58.68.79.79,0,0,1-.18.53.57.57,0,0,1-.47.22,1.31,1.31,0,0,1-.52-.16,1.85,1.85,0,0,0-.87-.16,4.21,4.21,0,0,0-2.26.68,7.91,7.91,0,0,0-2,1.8,9.65,9.65,0,0,0-1.45,2.45,7,7,0,0,0-.53,2.58v8.94a.68.68,0,0,1-.22.5A.66.66,0,0,1,241.09,57.45Z"/><path class="cls-13" d="M263.24,57.81a9.51,9.51,0,0,1-4.74-1.15,8.27,8.27,0,0,1-3.24-3.24,9.78,9.78,0,0,1-1.18-4.91,10.53,10.53,0,0,1,1.16-5.12,8.51,8.51,0,0,1,3-3.24A7.36,7.36,0,0,1,262.16,39a8.94,8.94,0,0,1,2.94.49,7.29,7.29,0,0,1,2.56,1.5,7.68,7.68,0,0,1,1.82,2.54,9.35,9.35,0,0,1,.77,3.63.75.75,0,0,1-.21.52.67.67,0,0,1-.51.23H254.94l-.22-1.36h14.42l-.36.32v-.64a6,6,0,0,0-1.19-3.18,6.7,6.7,0,0,0-2.46-2,7,7,0,0,0-3-.67,6,6,0,0,0-2.25.49,6.79,6.79,0,0,0-2.18,1.46,7.53,7.53,0,0,0-1.63,2.49,9,9,0,0,0-.63,3.51,9.16,9.16,0,0,0,.88,4A7,7,0,0,0,259,55.34a7.79,7.79,0,0,0,4.28,1.11,6.46,6.46,0,0,0,2.29-.41A7.59,7.59,0,0,0,267.46,55a6.81,6.81,0,0,0,1.39-1.47.81.81,0,0,1,.61-.32.56.56,0,0,1,.43.19.64.64,0,0,1,.18.45.69.69,0,0,1-.14.43,10.55,10.55,0,0,1-2.85,2.5A7.11,7.11,0,0,1,263.24,57.81Z"/><path class="cls-13" d="M292.43,39.6a.67.67,0,0,1,.52.21.72.72,0,0,1,.2.5V56.73a.65.65,0,0,1-.22.5.7.7,0,0,1-1,0,.69.69,0,0,1-.19-.5V51.65l.57-.46a5.29,5.29,0,0,1-.57,2.32,7.42,7.42,0,0,1-1.58,2.15,8.08,8.08,0,0,1-2.36,1.56,7.3,7.3,0,0,1-2.93.59,7.57,7.57,0,0,1-4.28-1.25,8.73,8.73,0,0,1-2.95-3.4,10.61,10.61,0,0,1-1.07-4.83,10.25,10.25,0,0,1,1.09-4.82,8.53,8.53,0,0,1,3-3.29,8,8,0,0,1,7.14-.64,7.47,7.47,0,0,1,2.38,1.55,7.28,7.28,0,0,1,2.16,5.26l-.57-.89V40.31a.71.71,0,0,1,.19-.5A.69.69,0,0,1,292.43,39.6Zm-7.51,16.85a6.25,6.25,0,0,0,3.58-1.06,7.17,7.17,0,0,0,2.47-2.9,9.45,9.45,0,0,0,.89-4.16,9.06,9.06,0,0,0-.89-4,7.26,7.26,0,0,0-2.47-2.86,6.61,6.61,0,0,0-7.12,0,7.16,7.16,0,0,0-2.49,2.81,8.93,8.93,0,0,0-.91,4.12,9.45,9.45,0,0,0,.89,4.16,7.17,7.17,0,0,0,2.47,2.9A6.23,6.23,0,0,0,284.92,56.45Z"/><path class="cls-13" d="M302.24,57.45a.65.65,0,0,1-.52-.22.7.7,0,0,1-.2-.5V40.31a.66.66,0,0,1,.22-.5.67.67,0,0,1,.5-.21.66.66,0,0,1,.51.21.68.68,0,0,1,.2.5v6l-.61.93a8.65,8.65,0,0,1,.49-2.83,9.33,9.33,0,0,1,1.41-2.66,7.53,7.53,0,0,1,2.27-2,6.17,6.17,0,0,1,3.1-.77,4.23,4.23,0,0,1,1.07.15.65.65,0,0,1,.57.68.79.79,0,0,1-.18.53.55.55,0,0,1-.46.22,1.22,1.22,0,0,1-.52-.16,1.89,1.89,0,0,0-.88-.16A4.21,4.21,0,0,0,307,41a7.91,7.91,0,0,0-2,1.8,9.65,9.65,0,0,0-1.45,2.45,6.83,6.83,0,0,0-.54,2.58v8.94a.73.73,0,0,1-.71.72Z"/><path class="cls-13" d="M130,95.25a.65.65,0,0,1,.52.22.72.72,0,0,1,.2.5v10.41a6.59,6.59,0,0,1-1.95,5.2,8.51,8.51,0,0,1-10.31,0,6.59,6.59,0,0,1-1.94-5.2V96a.69.69,0,0,1,.21-.5.66.66,0,0,1,.5-.22.65.65,0,0,1,.52.22.72.72,0,0,1,.2.5v10.41a5.4,5.4,0,0,0,1.52,4.15,5.79,5.79,0,0,0,4.13,1.43,5.88,5.88,0,0,0,4.17-1.43,5.44,5.44,0,0,0,1.52-4.15V96a.71.71,0,0,1,.19-.5A.67.67,0,0,1,130,95.25Z"/><path class="cls-13" d="M147.19,94.68a6.83,6.83,0,0,1,3.67.89A5.3,5.3,0,0,1,152.93,98a8.43,8.43,0,0,1,.67,3.43v11a.7.7,0,0,1-.22.5.72.72,0,0,1-1,0,.71.71,0,0,1-.19-.5V101.58a7.37,7.37,0,0,0-.52-2.79,4.42,4.42,0,0,0-1.65-2,5.22,5.22,0,0,0-2.95-.75,6.82,6.82,0,0,0-3.08.75,7.19,7.19,0,0,0-2.48,2,4.41,4.41,0,0,0-1,2.79v10.81a.69.69,0,0,1-.21.5.7.7,0,0,1-.5.21.67.67,0,0,1-.52-.21.72.72,0,0,1-.2-.5V96a.75.75,0,0,1,.72-.72.67.67,0,0,1,.52.22.71.71,0,0,1,.19.5v3.5l-.89,1.72a4.82,4.82,0,0,1,.68-2.47,7.54,7.54,0,0,1,1.79-2.09,8.47,8.47,0,0,1,2.45-1.43A7.23,7.23,0,0,1,147.19,94.68Z"/><path class="cls-13" d="M176,115.18a4.44,4.44,0,0,1-.83,2.72,5.64,5.64,0,0,1-1.95,1.7,4.64,4.64,0,0,1-2.12.59.66.66,0,0,1-.51-.2.68.68,0,0,1-.17-.45v-.07a.59.59,0,0,1,.19-.46.87.87,0,0,1,.45-.22,6,6,0,0,0,1.59-.53,3.76,3.76,0,0,0,1.36-1.15,3.16,3.16,0,0,0,.56-1.93V95.93a.71.71,0,0,1,.19-.5.69.69,0,0,1,.52-.21.67.67,0,0,1,.52.21.72.72,0,0,1,.2.5Zm-.72-23a1.29,1.29,0,0,1-.91-.32,1.08,1.08,0,0,1-.34-.82v-.29a1,1,0,0,1,.36-.82,1.32,1.32,0,0,1,.93-.33,1.17,1.17,0,0,1,.84.33,1.1,1.1,0,0,1,.34.82v.29a1.12,1.12,0,0,1-.34.82A1.25,1.25,0,0,1,175.24,92.21Z"/><path class="cls-13" d="M199.57,95.25a.65.65,0,0,1,.52.22.72.72,0,0,1,.2.5v10.41a6.59,6.59,0,0,1-1.95,5.2,8.51,8.51,0,0,1-10.31,0,6.59,6.59,0,0,1-1.95-5.2V96a.72.72,0,0,1,1.24-.5.71.71,0,0,1,.19.5v10.41a5.44,5.44,0,0,0,1.52,4.15,6.74,6.74,0,0,0,8.3,0,5.4,5.4,0,0,0,1.52-4.15V96a.72.72,0,0,1,.2-.5A.66.66,0,0,1,199.57,95.25Z"/><path class="cls-13" d="M216.71,113.46a9.61,9.61,0,0,1-4.74-1.14,8.41,8.41,0,0,1-3.24-3.24,9.84,9.84,0,0,1-1.18-4.92A10.55,10.55,0,0,1,208.71,99a8.55,8.55,0,0,1,3-3.23,7.3,7.3,0,0,1,3.91-1.13,9.19,9.19,0,0,1,2.94.48,7.2,7.2,0,0,1,2.56,1.5A7.68,7.68,0,0,1,223,99.2a9.45,9.45,0,0,1,.77,3.64.77.77,0,0,1-.21.52.69.69,0,0,1-.51.23H208.41l-.22-1.36h14.42l-.36.32v-.64a5.9,5.9,0,0,0-1.19-3.19,6.62,6.62,0,0,0-2.46-2,7,7,0,0,0-3-.66,6,6,0,0,0-2.25.48,6.82,6.82,0,0,0-2.18,1.47,7.43,7.43,0,0,0-1.63,2.49,9,9,0,0,0-.63,3.5,9.2,9.2,0,0,0,.88,4,7.1,7.1,0,0,0,2.61,2.93,7.79,7.79,0,0,0,4.28,1.11,6.24,6.24,0,0,0,2.29-.41,7.3,7.3,0,0,0,1.93-1.09,6.66,6.66,0,0,0,1.4-1.47.82.82,0,0,1,.6-.32.57.57,0,0,1,.43.2.64.64,0,0,1,.18.45.66.66,0,0,1-.14.42,10.58,10.58,0,0,1-2.85,2.51A7.17,7.17,0,0,1,216.71,113.46Z"/><path class="cls-13" d="M238.35,94.68a7.87,7.87,0,0,1,3,.57,8.53,8.53,0,0,1,2.45,1.5,7.68,7.68,0,0,1,1.65,2,4.38,4.38,0,0,1,.59,2.11l-.47-1.33V96a.72.72,0,0,1,.2-.5.65.65,0,0,1,.52-.22.67.67,0,0,1,.52.22.71.71,0,0,1,.19.5v15.38a9.47,9.47,0,0,1-1.13,4.76,7.76,7.76,0,0,1-3.09,3.08,9.48,9.48,0,0,1-4.58,1.07,11.07,11.07,0,0,1-2.88-.38,9.25,9.25,0,0,1-2.41-.94c-.65-.38-1-.79-1-1.22a.63.63,0,0,1,.16-.46.58.58,0,0,1,.45-.18.84.84,0,0,1,.66.39,2.7,2.7,0,0,0,1.09.72l.88.28a9.61,9.61,0,0,0,1.34.31,11.64,11.64,0,0,0,1.75.12,7,7,0,0,0,5.35-2.09,7.7,7.7,0,0,0,2-5.46v-3.54l.36,0a7.72,7.72,0,0,1-1.25,2.61,7.3,7.3,0,0,1-1.88,1.73,8.06,8.06,0,0,1-2.22,1,9,9,0,0,1-2.24.3,8.09,8.09,0,0,1-4.41-1.23,8.81,8.81,0,0,1-3.1-3.36,10.74,10.74,0,0,1,0-9.63,8.61,8.61,0,0,1,3.1-3.34A8.08,8.08,0,0,1,238.35,94.68Zm.08,1.36a6.84,6.84,0,0,0-3.74,1,7.33,7.33,0,0,0-2.62,2.84,9.52,9.52,0,0,0,0,8.25,7.51,7.51,0,0,0,2.62,2.88,6.85,6.85,0,0,0,3.74,1,6.93,6.93,0,0,0,3.72-1,7.4,7.4,0,0,0,2.61-2.82,9.69,9.69,0,0,0,0-8.41A7.23,7.23,0,0,0,242.15,97,7,7,0,0,0,238.43,96Z"/><path class="cls-13" d="M271.2,104.09a9.88,9.88,0,0,1-1.15,4.78,8.73,8.73,0,0,1-3.13,3.36,8.9,8.9,0,0,1-9,0,8.91,8.91,0,0,1-3.17-3.36,10.49,10.49,0,0,1,0-9.59,8.94,8.94,0,0,1,3.17-3.37,8.9,8.9,0,0,1,9,0,8.76,8.76,0,0,1,3.13,3.37A9.91,9.91,0,0,1,271.2,104.09Zm-1.43,0a8.76,8.76,0,0,0-.95-4.13,7.38,7.38,0,0,0-2.61-2.87,7.42,7.42,0,0,0-7.61,0A7.46,7.46,0,0,0,256,100a9.21,9.21,0,0,0,0,8.23,7.5,7.5,0,0,0,2.64,2.86,7.42,7.42,0,0,0,7.61,0,7.42,7.42,0,0,0,2.61-2.86A8.73,8.73,0,0,0,269.77,104.09Z"/><path class="cls-13" d="M283.22,100.83a.69.69,0,0,1,.21-.5.7.7,0,0,1,.5-.21,6.8,6.8,0,0,0,3-1A6,6,0,0,0,289,97.06a5.5,5.5,0,0,0,.77-2.88,6.51,6.51,0,0,0-.73-3.17,5.51,5.51,0,0,0-2-2.09,5.23,5.23,0,0,0-2.77-.75,6.22,6.22,0,0,0-3.06.78,7.44,7.44,0,0,0-2.34,2,.82.82,0,0,1-.42.33.69.69,0,0,1-.51-.08.67.67,0,0,1-.38-.48.68.68,0,0,1,.13-.55,8,8,0,0,1,2.84-2.45,7.73,7.73,0,0,1,3.74-1,7.2,7.2,0,0,1,3.52.87,6.57,6.57,0,0,1,2.54,2.53,7.83,7.83,0,0,1,.95,4,6.4,6.4,0,0,1-.57,2.61,8,8,0,0,1-1.59,2.34,7.79,7.79,0,0,1-2.35,1.68,6.54,6.54,0,0,1-2.86.63c-.09,0-.05,0,.13-.07a1,1,0,0,0,.48-.32v4.58a.72.72,0,0,1-.2.5.63.63,0,0,1-.48.21.67.67,0,0,1-.52-.21.61.61,0,0,1-.16-.5ZM284,113.1a.85.85,0,0,1-.72-.32A1.26,1.26,0,0,1,283,112v-.83a1.25,1.25,0,0,1,.25-.8.9.9,0,0,1,.72-.31h.14a.89.89,0,0,1,.74.31,1.31,1.31,0,0,1,.23.8V112a1.31,1.31,0,0,1-.23.78.84.84,0,0,1-.74.32Z"/><g class="cls-4"><rect class="cls-5" x="-193.37" y="119.55" width="412.17" height="166.72" transform="translate(-190.18 189.92) rotate(-82.75)"/><line class="cls-6" x1="66.87" y1="25.75" x2="56.06" y2="110.66"/><line class="cls-6" x1="40.56" y1="22.41" x2="29.76" y2="107.32"/><line class="cls-6" x1="88.87" y1="86.23" x2="3.96" y2="75.43"/><line class="cls-6" x1="92.29" y1="57.51" x2="7.38" y2="46.71"/><path class="cls-7" d="M88.49,34.59a1.52,1.52,0,0,1-.8,1.18L73.16,44.6a1.43,1.43,0,0,1-1,.22,1.45,1.45,0,0,1-1-.63,1.54,1.54,0,0,1,.49-2.32L86.17,33a1.46,1.46,0,0,1,1-.22,1.48,1.48,0,0,1,1.06.62A1.55,1.55,0,0,1,88.49,34.59Zm-16.29-2a1.6,1.6,0,0,1,.53-1,1.22,1.22,0,0,1,1-.37,1.45,1.45,0,0,1,.9.49l5.43,5.67-2.75,1.25-4.67-4.76A1.49,1.49,0,0,1,72.2,32.55Zm15,12.54a1.46,1.46,0,0,1-.55,1,1.33,1.33,0,0,1-1,.3,1.87,1.87,0,0,1-.5-.14,1.56,1.56,0,0,1-.47-.36l-5.4-5.6L81.7,39l4.91,4.82A1.54,1.54,0,0,1,87.16,45.09Z"/><path class="cls-7" d="M56,61.92a1.52,1.52,0,0,1-.8,1.18L40.71,71.93a1.37,1.37,0,0,1-1,.22,1.41,1.41,0,0,1-1-.63,1.56,1.56,0,0,1-.33-1.14,1.61,1.61,0,0,1,.81-1.18l14.5-8.83a1.46,1.46,0,0,1,1-.22,1.48,1.48,0,0,1,1.06.62A1.52,1.52,0,0,1,56,61.92Zm-16.29-2a1.6,1.6,0,0,1,.53-1,1.23,1.23,0,0,1,1-.37,1.46,1.46,0,0,1,.91.5l5.42,5.66L44.9,66l-4.66-4.76A1.5,1.5,0,0,1,39.75,59.88Zm15,12.55a1.5,1.5,0,0,1-.55,1,1.32,1.32,0,0,1-1,.29,2,2,0,0,1-.5-.14,1.69,1.69,0,0,1-.47-.36l-5.39-5.6,2.47-1.34,4.91,4.81A1.52,1.52,0,0,1,54.71,72.43Z"/><path class="cls-7" d="M22.92,88.83A1.53,1.53,0,0,1,22.11,90L7.58,98.84a1.35,1.35,0,0,1-1,.22,1.41,1.41,0,0,1-1-.63,1.55,1.55,0,0,1-.32-1.14,1.6,1.6,0,0,1,.8-1.18l14.5-8.83a1.5,1.5,0,0,1,2,.4A1.57,1.57,0,0,1,22.92,88.83Zm-16.3-2a1.66,1.66,0,0,1,.53-1,1.29,1.29,0,0,1,1-.37,1.47,1.47,0,0,1,.9.5l5.42,5.66-2.75,1.25L7.11,88.1A1.5,1.5,0,0,1,6.62,86.79Zm15,12.55a1.46,1.46,0,0,1-.55,1,1.32,1.32,0,0,1-1,.29,1.81,1.81,0,0,1-.49-.14,1.32,1.32,0,0,1-.47-.36l-5.4-5.6,2.48-1.34L21,98A1.52,1.52,0,0,1,21.58,99.34Z"/><path class="cls-7" d="M81.24,95.6a1.5,1.5,0,0,1-.8,1.18l-14.53,8.83a1.39,1.39,0,0,1-1,.22,1.43,1.43,0,0,1-1-.63,1.54,1.54,0,0,1,.48-2.31l14.5-8.84a1.5,1.5,0,0,1,1-.22,1.52,1.52,0,0,1,1.06.62A1.61,1.61,0,0,1,81.24,95.6ZM65,93.56a1.64,1.64,0,0,1,.52-1,1.25,1.25,0,0,1,1-.36,1.36,1.36,0,0,1,.9.49l5.42,5.67L70.1,99.63l-4.67-4.75A1.52,1.52,0,0,1,65,93.56Zm15,12.55a1.48,1.48,0,0,1-.55,1,1.35,1.35,0,0,1-1,.29,1.87,1.87,0,0,1-.5-.14,1.29,1.29,0,0,1-.47-.36l-5.4-5.6L74.45,100l4.91,4.82A1.57,1.57,0,0,1,79.91,106.11Z"/><path class="cls-8" d="M75,78.05a8.59,8.59,0,0,1-4.21-1.63,8,8,0,0,1-2.59-3.3,8.64,8.64,0,0,1,1.06-8.33,8,8,0,0,1,3.34-2.57,9.3,9.3,0,0,1,8.71,1.11A8.16,8.16,0,0,1,84,66.66a8.06,8.06,0,0,1,.56,4.3,8.17,8.17,0,0,1-1.62,4,8.06,8.06,0,0,1-3.35,2.55A8.74,8.74,0,0,1,75,78.05ZM75.42,75a6.1,6.1,0,0,0,3-.3,5.21,5.21,0,0,0,2.18-1.59,4.87,4.87,0,0,0,1-2.48,5,5,0,0,0-.37-2.68,5.14,5.14,0,0,0-1.72-2.1,6.64,6.64,0,0,0-5.82-.74,5.07,5.07,0,0,0-2.2,1.6,4.93,4.93,0,0,0-1,2.5,4.81,4.81,0,0,0,.38,2.66,5.12,5.12,0,0,0,1.73,2.09A6,6,0,0,0,75.42,75Z"/><path class="cls-8" d="M42.33,103.37a8.56,8.56,0,0,1-4.2-1.63,8,8,0,0,1-2.59-3.3,8.17,8.17,0,0,1-.55-4.3,8.28,8.28,0,0,1,1.6-4,8.05,8.05,0,0,1,3.34-2.56,9.27,9.27,0,0,1,8.72,1.1,8.16,8.16,0,0,1,3.17,7.63,8.05,8.05,0,0,1-5,6.57A8.66,8.66,0,0,1,42.33,103.37Zm.4-3.08a6.16,6.16,0,0,0,3-.3,5.18,5.18,0,0,0,2.19-1.59,5.1,5.1,0,0,0,.65-5.16,5,5,0,0,0-1.71-2.1,6.65,6.65,0,0,0-5.82-.74,5,5,0,0,0-2.2,1.6,5.15,5.15,0,0,0-.66,5.16,5.14,5.14,0,0,0,1.74,2.09A6.13,6.13,0,0,0,42.73,100.29Z"/><path class="cls-8" d="M21.87,40.41a8.69,8.69,0,0,1-4.2-1.63,7.91,7.91,0,0,1-2.59-3.31,8.63,8.63,0,0,1,1.06-8.32,8.06,8.06,0,0,1,3.33-2.57A8.58,8.58,0,0,1,24,24a8.57,8.57,0,0,1,4.23,1.65,8.24,8.24,0,0,1-1.8,14.2A8.76,8.76,0,0,1,21.87,40.41Zm.4-3.08a6.1,6.1,0,0,0,3-.31,5.11,5.11,0,0,0,2.18-1.58,4.86,4.86,0,0,0,1-2.49,5,5,0,0,0-.37-2.68,5.12,5.12,0,0,0-1.72-2.09,6.56,6.56,0,0,0-5.82-.74,5,5,0,0,0-2.2,1.6,5.15,5.15,0,0,0-.66,5.16,5.12,5.12,0,0,0,1.74,2.08A6,6,0,0,0,22.27,37.33Z"/><path class="cls-8" d="M50.42,44.43a8.65,8.65,0,0,1-4.2-1.63,7.91,7.91,0,0,1-2.59-3.31A8.29,8.29,0,0,1,48,28.6a9.31,9.31,0,0,1,8.72,1.11,8.24,8.24,0,0,1-1.8,14.2A8.76,8.76,0,0,1,50.42,44.43Zm.4-3.08a6,6,0,0,0,3-.31A5.08,5.08,0,0,0,56,39.46a4.86,4.86,0,0,0,1-2.49A5,5,0,0,0,55,32.2a6.56,6.56,0,0,0-5.82-.74,5,5,0,0,0-2.2,1.6,5.15,5.15,0,0,0-.66,5.16A5.12,5.12,0,0,0,48,40.3,6,6,0,0,0,50.82,41.35Z"/><line class="cls-6" x1="96.89" y1="28.59" x2="6.41" y2="118.06"/><line class="cls-6" x1="83.54" y1="120.57" x2="81.32" y2="137.97"/><line class="cls-6" x1="67.79" y1="118.56" x2="65.49" y2="135.95"/><line class="cls-6" x1="81.32" y1="137.97" x2="65.58" y2="135.96"/><line class="cls-6" x1="83.54" y1="120.57" x2="67.79" y2="118.56"/><path class="cls-9" d="M78.81,126.09a.66.66,0,0,1-.35.52l-6.37,3.86a.57.57,0,0,1-.42.1.62.62,0,0,1-.44-.27.68.68,0,0,1-.14-.5.69.69,0,0,1,.35-.52l6.35-3.87a.65.65,0,0,1,.42-.09.62.62,0,0,1,.47.27A.69.69,0,0,1,78.81,126.09Zm-7.14-.89a.73.73,0,0,1,.23-.43.55.55,0,0,1,.46-.16.62.62,0,0,1,.4.22l2.37,2.48-1.2.55-2-2.09A.68.68,0,0,1,71.67,125.2Zm6.56,5.49a.68.68,0,0,1-.25.45.58.58,0,0,1-.44.12.9.9,0,0,1-.22-.06.49.49,0,0,1-.2-.16l-2.37-2.45,1.09-.59L78,130.11A.72.72,0,0,1,78.23,130.69Z"/><line class="cls-10" x1="50.39" y1="154.63" x2="39.59" y2="239.54"/><line class="cls-10" x1="24.08" y1="151.28" x2="13.28" y2="236.2"/><line class="cls-10" x1="72.4" y1="215.11" x2="-12.52" y2="204.31"/><line class="cls-10" x1="75.81" y1="186.39" x2="-9.1" y2="175.59"/><line class="cls-10" x1="67.06" y1="249.45" x2="64.85" y2="266.85"/><line class="cls-10" x1="51.32" y1="247.44" x2="49.02" y2="264.83"/><line class="cls-10" x1="64.85" y1="266.85" x2="49.1" y2="264.84"/><line class="cls-10" x1="67.06" y1="249.45" x2="51.32" y2="247.44"/><line class="cls-14" x1="34.45" y1="279.91" x2="23.65" y2="364.82"/><line class="cls-14" x1="8.15" y1="276.56" x2="-2.65" y2="361.48"/></g><text class="cls-15" transform="translate(171.49 197.14)">e<tspan class="cls-16" x="22.89" y="0">n </tspan><tspan class="cls-17"><tspan x="-51.81" y="55.66">K</tspan><tspan class="cls-18" x="-18.96" y="55.66">a</tspan><tspan class="cls-19" x="9.54" y="55.66">laha</tspan></tspan></text></g></svg>