<svg id="Layer_1" data-name="Layer 1" xmlns="http://www.w3.org/2000/svg" xmlns:xlink="http://www.w3.org/1999/xlink" viewBox="0 0 400 111.55"><defs><style>.cls-1,.cls-3,.cls-4{fill:none;}.cls-2{clip-path:url(#clip-path);}.cls-3{stroke:#fff;}.cls-3,.cls-4{stroke-miterlimit:10;}.cls-4{stroke:#2e67b1;}.cls-5{fill:#2e67b1;}.cls-6{fill:#fccb98;}</style><clipPath id="clip-path"><rect class="cls-1" x="142.8" y="-148.05" width="114.4" height="405.31" transform="translate(254.61 -145.39) rotate(90)"/></clipPath></defs><title>ta-te-ti</title><g class="cls-2"><path class="cls-3" d="M425.19,50.85s-19.8,175.58-171.08,93.83"/><line class="cls-4" x1="19.86" y1="43.85" x2="98.91" y2="43.99"/><line class="cls-4" x1="19.82" y1="68.34" x2="98.86" y2="68.48"/><line class="cls-4" x1="72.75" y1="16.74" x2="72.61" y2="95.78"/><line class="cls-4" x1="46.04" y1="16.9" x2="45.9" y2="95.95"/><path class="cls-5" d="M25.51,23.05a1.46,1.46,0,0,1,1.18.61L36.44,36a1.31,1.31,0,0,1,.32.86,1.34,1.34,0,0,1-.46,1,1.42,1.42,0,0,1-2.18-.17L24.36,25.37a1.4,1.4,0,0,1,.13-1.9A1.46,1.46,0,0,1,25.51,23.05Zm0,15.17a1.46,1.46,0,0,1-.94-.37,1.14,1.14,0,0,1-.46-.92,1.31,1.31,0,0,1,.35-.88L29,30.43l1.45,2.37-3.82,4.82A1.4,1.4,0,0,1,25.51,38.22Zm9.78-15.15a1.34,1.34,0,0,1,1,.39,1.24,1.24,0,0,1,.39.9,1.6,1.6,0,0,1-.08.47,1.33,1.33,0,0,1-.27.47l-4.51,5.59-1.52-2.11,3.85-5.05A1.42,1.42,0,0,1,35.29,23.07Z"/><path class="cls-5" d="M54.28,49.65a1.43,1.43,0,0,1,1.18.6l9.76,12.3a1.27,1.27,0,0,1,.31.85,1.29,1.29,0,0,1-.46,1,1.43,1.43,0,0,1-1,.43,1.48,1.48,0,0,1-1.18-.6L53.13,52a1.36,1.36,0,0,1-.31-.86,1.34,1.34,0,0,1,.45-1A1.41,1.41,0,0,1,54.28,49.65Zm0,15.16a1.48,1.48,0,0,1-.95-.37,1.12,1.12,0,0,1-.46-.91,1.34,1.34,0,0,1,.35-.89L57.8,57l1.46,2.37-3.83,4.83A1.39,1.39,0,0,1,54.29,64.81Zm9.77-15.15a1.31,1.31,0,0,1,1,.39,1.24,1.24,0,0,1,.39.9,2,2,0,0,1-.07.47,1.22,1.22,0,0,1-.28.47l-4.51,5.59-1.52-2.11,3.86-5A1.39,1.39,0,0,1,64.06,49.66Z"/><path class="cls-5" d="M82.75,76.91a1.43,1.43,0,0,1,1.18.6l9.75,12.3a1.29,1.29,0,0,1,.32.86,1.36,1.36,0,0,1-.46,1,1.47,1.47,0,0,1-1,.42,1.45,1.45,0,0,1-1.17-.6L81.6,79.22a1.3,1.3,0,0,1-.31-.86,1.35,1.35,0,0,1,.44-1A1.49,1.49,0,0,1,82.75,76.91Zm0,15.17a1.47,1.47,0,0,1-.94-.38,1.12,1.12,0,0,1-.46-.91,1.34,1.34,0,0,1,.35-.89l4.57-5.62,1.45,2.38L83.9,91.48A1.4,1.4,0,0,1,82.75,92.08Zm9.78-15.15a1.37,1.37,0,0,1,1,.38,1.19,1.19,0,0,1,.38.9,1.64,1.64,0,0,1-.07.48,1.42,1.42,0,0,1-.27.47l-4.51,5.59-1.52-2.12,3.85-5A1.41,1.41,0,0,1,92.53,76.93Z"/><path class="cls-5" d="M82.25,22.69a1.43,1.43,0,0,1,1.18.6l9.76,12.3a1.28,1.28,0,0,1,.31.86,1.32,1.32,0,0,1-.46,1,1.43,1.43,0,0,1-2.18-.18L81.1,25a1.36,1.36,0,0,1-.31-.86,1.38,1.38,0,0,1,.44-1A1.49,1.49,0,0,1,82.25,22.69Zm0,15.16a1.46,1.46,0,0,1-.94-.37,1.12,1.12,0,0,1-.46-.91,1.34,1.34,0,0,1,.35-.89l4.57-5.62,1.46,2.38L83.4,37.26A1.35,1.35,0,0,1,82.25,37.85ZM92,22.71a1.37,1.37,0,0,1,1,.38,1.24,1.24,0,0,1,.39.9,1.91,1.91,0,0,1-.07.47,1.26,1.26,0,0,1-.28.48l-4.51,5.59L87,28.41l3.85-5.05A1.38,1.38,0,0,1,92,22.71Z"/><path class="cls-6" d="M66.89,30.4a8,8,0,0,1-1,4,7.48,7.48,0,0,1-2.74,2.76,7.61,7.61,0,0,1-3.87,1,7.48,7.48,0,0,1-6.61-3.77,7.91,7.91,0,0,1-1-4.05,8,8,0,0,1,1-4.07,7.69,7.69,0,0,1,2.75-2.77,7.6,7.6,0,0,1,10.47,2.8A8.05,8.05,0,0,1,66.89,30.4Zm-2.87,0a5.67,5.67,0,0,0-.63-2.73,4.78,4.78,0,0,0-1.7-1.81,4.68,4.68,0,0,0-4.81,0,4.71,4.71,0,0,0-1.73,1.81,6.19,6.19,0,0,0,0,5.42,4.74,4.74,0,0,0,1.72,1.83,4.74,4.74,0,0,0,4.81,0,4.72,4.72,0,0,0,1.71-1.83A5.6,5.6,0,0,0,64,30.39Z"/><path class="cls-6" d="M93.85,57.45a8,8,0,0,1-1,4,7.28,7.28,0,0,1-2.73,2.75,7.54,7.54,0,0,1-3.87,1,7.66,7.66,0,0,1-3.88-1,7.45,7.45,0,0,1-2.73-2.76,7.86,7.86,0,0,1-1-4,8,8,0,0,1,1-4.07,7.61,7.61,0,0,1,13.22,0A8.09,8.09,0,0,1,93.85,57.45Zm-2.87,0a5.62,5.62,0,0,0-.63-2.73,4.76,4.76,0,0,0-1.71-1.82,4.45,4.45,0,0,0-2.39-.66,4.63,4.63,0,0,0-2.41.65,4.73,4.73,0,0,0-1.73,1.82,5.6,5.6,0,0,0-.63,2.72,5.48,5.48,0,0,0,.62,2.69A4.7,4.7,0,0,0,83.82,62a4.76,4.76,0,0,0,2.41.66,4.51,4.51,0,0,0,2.4-.66,4.62,4.62,0,0,0,1.71-1.82A5.72,5.72,0,0,0,91,57.44Z"/><path class="cls-6" d="M38.5,83.43a8,8,0,0,1-1,4,7.28,7.28,0,0,1-2.73,2.75,7.65,7.65,0,0,1-10.49-2.77,8.59,8.59,0,0,1,0-8.12A7.61,7.61,0,0,1,27,76.56a7.63,7.63,0,0,1,10.47,2.79A8.11,8.11,0,0,1,38.5,83.43Zm-2.87,0A5.56,5.56,0,0,0,35,80.69a4.76,4.76,0,0,0-1.71-1.82,4.69,4.69,0,0,0-4.8,0,4.64,4.64,0,0,0-1.73,1.81,5.73,5.73,0,0,0-.64,2.73,5.55,5.55,0,0,0,.63,2.68,4.63,4.63,0,0,0,1.72,1.84,4.74,4.74,0,0,0,4.81,0A4.87,4.87,0,0,0,35,86.11,5.59,5.59,0,0,0,35.63,83.42Z"/><path class="cls-6" d="M38.91,56.81a8,8,0,0,1-1,4,7.28,7.28,0,0,1-2.73,2.75,7.54,7.54,0,0,1-3.87,1,7.66,7.66,0,0,1-3.88-1,7.53,7.53,0,0,1-2.73-2.76,7.83,7.83,0,0,1-1-4,8,8,0,0,1,1-4.07,7.61,7.61,0,0,1,13.22,0A8.09,8.09,0,0,1,38.91,56.81ZM36,56.8a5.62,5.62,0,0,0-.63-2.73,4.76,4.76,0,0,0-1.71-1.82,4.45,4.45,0,0,0-2.39-.66,4.66,4.66,0,0,0-2.41.65,4.73,4.73,0,0,0-1.73,1.82,5.62,5.62,0,0,0-.63,2.73,5.44,5.44,0,0,0,.62,2.68A4.6,4.6,0,0,0,31.29,62a4.51,4.51,0,0,0,2.4-.66,4.62,4.62,0,0,0,1.71-1.82A5.72,5.72,0,0,0,36,56.8Z"/><line class="cls-4" x1="19.01" y1="16.01" x2="111.39" y2="88.64"/><line class="cls-4" x1="104.82" y1="17.68" x2="121.02" y2="17.71"/><line class="cls-4" x1="104.8" y1="32.33" x2="121" y2="32.44"/><line class="cls-4" x1="121.02" y1="17.71" x2="121" y2="32.36"/><line class="cls-4" x1="104.82" y1="17.68" x2="104.8" y2="32.33"/><path class="cls-5" d="M110.47,21.41a.6.6,0,0,1,.51.27l4.28,5.38a.59.59,0,0,1,.14.38.58.58,0,0,1-.21.44.63.63,0,0,1-1-.08L110,22.42a.58.58,0,0,1-.13-.37.6.6,0,0,1,.19-.46A.64.64,0,0,1,110.47,21.41Zm0,6.65a.64.64,0,0,1-.41-.17.45.45,0,0,1-.2-.4.6.6,0,0,1,.15-.39l2-2.46.64,1L111,27.79A.6.6,0,0,1,110.47,28.06Zm4.28-6.64a.62.62,0,0,1,.44.17.54.54,0,0,1,.17.39.78.78,0,0,1,0,.21.57.57,0,0,1-.12.21l-2,2.44-.67-.92,1.69-2.21A.62.62,0,0,1,114.75,21.42Z"/><line class="cls-4" x1="139.19" y1="44.31" x2="218.24" y2="44.45"/><line class="cls-4" x1="139.15" y1="68.8" x2="218.19" y2="68.94"/><line class="cls-4" x1="192.08" y1="17.19" x2="191.94" y2="96.24"/><line class="cls-4" x1="165.37" y1="17.36" x2="165.23" y2="96.41"/><line class="cls-4" x1="224.15" y1="18.14" x2="240.35" y2="18.16"/><line class="cls-4" x1="224.13" y1="32.79" x2="240.33" y2="32.9"/><line class="cls-4" x1="240.35" y1="18.16" x2="240.33" y2="32.82"/><line class="cls-4" x1="224.15" y1="18.14" x2="224.13" y2="32.79"/><path class="cls-5" d="M229.8,21.87a.65.65,0,0,1,.52.26l4.27,5.39a.57.57,0,0,1,.14.38.56.56,0,0,1-.21.43.6.6,0,0,1-.43.19.65.65,0,0,1-.52-.26l-4.27-5.38a.55.55,0,0,1-.14-.37.59.59,0,0,1,.19-.46A.64.64,0,0,1,229.8,21.87Zm0,6.64a.63.63,0,0,1-.41-.16.48.48,0,0,1-.2-.4.6.6,0,0,1,.15-.39l2-2.46.64,1-1.68,2.11A.59.59,0,0,1,229.8,28.51Zm4.28-6.63a.58.58,0,0,1,.44.17.54.54,0,0,1,.17.39.78.78,0,0,1,0,.21.47.47,0,0,1-.12.2l-2,2.45-.67-.93,1.69-2.21A.61.61,0,0,1,234.08,21.88Z"/><line class="cls-4" x1="273.03" y1="44.26" x2="352.08" y2="44.4"/><line class="cls-4" x1="272.99" y1="68.75" x2="352.03" y2="68.89"/><line class="cls-4" x1="325.92" y1="17.15" x2="325.78" y2="96.19"/><line class="cls-4" x1="299.21" y1="17.31" x2="299.07" y2="96.36"/><line class="cls-4" x1="357.99" y1="18.09" x2="374.19" y2="18.12"/><line class="cls-4" x1="357.97" y1="32.74" x2="374.17" y2="32.85"/><line class="cls-4" x1="374.19" y1="18.12" x2="374.17" y2="32.77"/><line class="cls-4" x1="357.99" y1="18.09" x2="357.97" y2="32.74"/><path class="cls-5" d="M363.64,21.82a.6.6,0,0,1,.51.27l4.28,5.38a.59.59,0,0,1,.14.38.58.58,0,0,1-.21.44.63.63,0,0,1-.95-.08l-4.27-5.38a.54.54,0,0,1-.14-.37.6.6,0,0,1,.19-.46A.64.64,0,0,1,363.64,21.82Zm0,6.65a.7.7,0,0,1-.41-.17.48.48,0,0,1-.2-.4.6.6,0,0,1,.15-.39l2-2.46.64,1-1.68,2.11A.6.6,0,0,1,363.64,28.47Zm4.28-6.64a.62.62,0,0,1,.44.17.54.54,0,0,1,.17.39.78.78,0,0,1,0,.21.57.57,0,0,1-.12.21l-2,2.44-.67-.92,1.69-2.21A.62.62,0,0,1,367.92,21.83Z"/></g></svg>