<svg id="Layer_1" data-name="Layer 1" xmlns="http://www.w3.org/2000/svg" xmlns:xlink="http://www.w3.org/1999/xlink" viewBox="0 0 400 111.55"><defs><style>.cls-1,.cls-4,.cls-5{fill:none;}.cls-2{clip-path:url(#clip-path);}.cls-3{fill:#ffcb98;}.cls-4,.cls-5,.cls-6,.cls-7,.cls-8,.cls-9{stroke:#fff;}.cls-4,.cls-6,.cls-7,.cls-8,.cls-9{stroke-miterlimit:10;}.cls-5{stroke-linecap:round;stroke-linejoin:round;}.cls-6{fill:#2e67b1;}.cls-7{fill:#fccb98;}.cls-8{fill:#f69668;}.cls-10,.cls-9{fill:#fff;}.cls-10{font-size:35.78px;font-family:AveriaSansLibre-Bold, Averia Sans Libre;font-weight:700;letter-spacing:0.07em;}.cls-11{letter-spacing:0.07em;}.cls-12{letter-spacing:0.07em;}</style><clipPath id="clip-path"><rect class="cls-1" x="142.8" y="-148.05" width="114.4" height="405.31" transform="translate(254.61 -145.39) rotate(90)"/></clipPath></defs><title>taTeTi</title><g class="cls-2"><rect class="cls-3" x="-101.55" y="-42.91" width="584.84" height="423.33" transform="translate(359.63 -22.11) rotate(90)"/><path class="cls-4" d="M425.19,50.85s-19.8,175.58-171.08,93.83"/><line class="cls-5" x1="19.78" y1="40.91" x2="91.17" y2="41.04"/><line class="cls-5" x1="19.74" y1="63.03" x2="91.13" y2="63.16"/><line class="cls-5" x1="67.55" y1="16.42" x2="67.42" y2="87.82"/><line class="cls-5" x1="43.42" y1="16.57" x2="43.3" y2="87.97"/><path class="cls-6" d="M24.87,22.12a1.27,1.27,0,0,1,1.06.54l8.81,11.11a1.15,1.15,0,0,1,.29.77,1.2,1.2,0,0,1-.42.91,1.32,1.32,0,0,1-.91.38,1.34,1.34,0,0,1-1.06-.54L23.83,24.21a1.25,1.25,0,0,1-.28-.78,1.22,1.22,0,0,1,.4-.94A1.3,1.3,0,0,1,24.87,22.12Zm0,13.7a1.36,1.36,0,0,1-.85-.34,1,1,0,0,1-.42-.83,1.25,1.25,0,0,1,.32-.8L28,28.78l1.32,2.14-3.45,4.36A1.26,1.26,0,0,1,24.87,35.82ZM33.7,22.13a1.24,1.24,0,0,1,.9.35,1.14,1.14,0,0,1,.34.82,1.58,1.58,0,0,1-.06.42,1.12,1.12,0,0,1-.25.43L30.56,29.2l-1.37-1.92,3.48-4.56A1.28,1.28,0,0,1,33.7,22.13Z"/><path class="cls-6" d="M50.86,46.14a1.29,1.29,0,0,1,1.06.54l8.81,11.11a1.15,1.15,0,0,1,.29.77,1.17,1.17,0,0,1-.42.9,1.31,1.31,0,0,1-.91.39,1.33,1.33,0,0,1-1.06-.54L49.82,48.22a1.23,1.23,0,0,1-.29-.77,1.26,1.26,0,0,1,.41-.94A1.3,1.3,0,0,1,50.86,46.14Zm0,13.69A1.39,1.39,0,0,1,50,59.5a1.05,1.05,0,0,1-.41-.83,1.24,1.24,0,0,1,.31-.8L54,52.8l1.32,2.14L51.9,59.29A1.28,1.28,0,0,1,50.86,59.83Zm8.83-13.68a1.21,1.21,0,0,1,.89.35,1.08,1.08,0,0,1,.35.81,1.65,1.65,0,0,1-.06.43,1.27,1.27,0,0,1-.25.43l-4.08,5L55.17,51.3l3.48-4.56A1.29,1.29,0,0,1,59.69,46.15Z"/><path class="cls-6" d="M76.57,70.76a1.29,1.29,0,0,1,1.06.54l8.81,11.11a1.15,1.15,0,0,1,.29.77,1.2,1.2,0,0,1-.42.91,1.3,1.3,0,0,1-.91.38,1.33,1.33,0,0,1-1.06-.54L75.53,72.85a1.24,1.24,0,0,1,.12-1.72A1.3,1.3,0,0,1,76.57,70.76Zm0,13.7a1.4,1.4,0,0,1-.86-.34,1,1,0,0,1-.41-.83,1.26,1.26,0,0,1,.31-.8l4.13-5.07,1.32,2.14-3.45,4.36A1.28,1.28,0,0,1,76.57,84.46ZM85.4,70.77a1.25,1.25,0,0,1,.89.35,1.11,1.11,0,0,1,.35.82,1.52,1.52,0,0,1-.06.42,1.27,1.27,0,0,1-.25.43l-4.08,5-1.37-1.91,3.48-4.56A1.28,1.28,0,0,1,85.4,70.77Z"/><path class="cls-6" d="M76.12,21.79a1.29,1.29,0,0,1,1.06.54L86,33.44a1.15,1.15,0,0,1,.29.77,1.2,1.2,0,0,1-.42.91,1.3,1.3,0,0,1-2-.16L75.08,23.87a1.21,1.21,0,0,1-.29-.77,1.26,1.26,0,0,1,.41-.94A1.3,1.3,0,0,1,76.12,21.79Zm0,13.7a1.42,1.42,0,0,1-.85-.34,1,1,0,0,1-.42-.83,1.2,1.2,0,0,1,.32-.8l4.12-5.07,1.32,2.14L77.16,35A1.28,1.28,0,0,1,76.12,35.49ZM85,21.8a1.21,1.21,0,0,1,.89.35,1.11,1.11,0,0,1,.35.82,1.58,1.58,0,0,1-.06.42,1.27,1.27,0,0,1-.25.43L81.8,28.87,80.44,27l3.47-4.56A1.29,1.29,0,0,1,85,21.8Z"/><path class="cls-7" d="M62.24,28.75a7.24,7.24,0,0,1-.91,3.65,6.63,6.63,0,0,1-2.47,2.49,7.22,7.22,0,0,1-7,0,6.73,6.73,0,0,1-2.47-2.5,7.07,7.07,0,0,1-.91-3.65,7.23,7.23,0,0,1,.92-3.68,6.75,6.75,0,0,1,6-3.41,6.71,6.71,0,0,1,6,3.43A7.35,7.35,0,0,1,62.24,28.75Zm-2.59,0a5.09,5.09,0,0,0-.57-2.47,4.27,4.27,0,0,0-1.54-1.64,4,4,0,0,0-2.16-.6,4.19,4.19,0,0,0-2.18.59,4.25,4.25,0,0,0-1.56,1.64,5.57,5.57,0,0,0,0,4.89,4.23,4.23,0,0,0,1.56,1.66,4.16,4.16,0,0,0,2.17.59,4,4,0,0,0,2.17-.59,4.16,4.16,0,0,0,1.54-1.65A5,5,0,0,0,59.65,28.75Z"/><path class="cls-7" d="M86.59,53.18a7.17,7.17,0,0,1-.92,3.65,6.54,6.54,0,0,1-2.46,2.49,7.22,7.22,0,0,1-7,0,6.73,6.73,0,0,1-2.47-2.5,7.2,7.2,0,0,1-.92-3.65,7.34,7.34,0,0,1,.93-3.68A7,7,0,0,1,83.23,47a6.74,6.74,0,0,1,2.46,2.51A7.35,7.35,0,0,1,86.59,53.18Zm-2.59,0a5.09,5.09,0,0,0-.57-2.47,4.27,4.27,0,0,0-1.54-1.64,4,4,0,0,0-2.16-.6A4.19,4.19,0,0,0,76,50.7a5,5,0,0,0-.57,2.46A5,5,0,0,0,76,55.59a4.25,4.25,0,0,0,1.55,1.65,4.13,4.13,0,0,0,2.18.6,4,4,0,0,0,2.17-.59,4.23,4.23,0,0,0,1.54-1.65A5.12,5.12,0,0,0,84,53.18Z"/><path class="cls-7" d="M36.6,76.65a7.19,7.19,0,0,1-.91,3.65,6.71,6.71,0,0,1-2.47,2.49,7.26,7.26,0,0,1-7,0,6.71,6.71,0,0,1-2.47-2.49,7.2,7.2,0,0,1-.91-3.66A7.1,7.1,0,0,1,23.77,73a6.76,6.76,0,0,1,2.48-2.5,6.65,6.65,0,0,1,3.5-.91,6.8,6.8,0,0,1,3.5.92A6.71,6.71,0,0,1,35.7,73,7.12,7.12,0,0,1,36.6,76.65Zm-2.59,0a5.16,5.16,0,0,0-.56-2.46,4.37,4.37,0,0,0-1.54-1.65,4.3,4.3,0,0,0-4.35,0A4.27,4.27,0,0,0,26,74.16a5.51,5.51,0,0,0,0,4.9,4.25,4.25,0,0,0,1.55,1.65,4.25,4.25,0,0,0,4.34,0,4.32,4.32,0,0,0,1.55-1.65A5,5,0,0,0,34,76.64Z"/><path class="cls-7" d="M37,52.6a7.25,7.25,0,0,1-.92,3.65,6.61,6.61,0,0,1-2.46,2.49,7.22,7.22,0,0,1-7,0,6.73,6.73,0,0,1-2.47-2.5,7.72,7.72,0,0,1,0-7.33,6.87,6.87,0,0,1,11.94,0A7.35,7.35,0,0,1,37,52.6Zm-2.59,0a5.09,5.09,0,0,0-.57-2.47,4.27,4.27,0,0,0-1.54-1.64,4,4,0,0,0-2.16-.6,4.19,4.19,0,0,0-2.18.59,4.25,4.25,0,0,0-1.56,1.64,5.08,5.08,0,0,0-.57,2.46A4.93,4.93,0,0,0,26.36,55a4.28,4.28,0,0,0,1.55,1.66,4.19,4.19,0,0,0,2.18.59,4.07,4.07,0,0,0,2.17-.59A4.23,4.23,0,0,0,33.8,55,5.12,5.12,0,0,0,34.38,52.6Z"/><line class="cls-5" x1="19.01" y1="15.77" x2="102.45" y2="81.37"/><line class="cls-5" x1="96.52" y1="17.27" x2="111.15" y2="17.3"/><line class="cls-5" x1="96.49" y1="30.51" x2="111.12" y2="30.61"/><line class="cls-5" x1="111.15" y1="17.3" x2="111.12" y2="30.54"/><line class="cls-5" x1="96.52" y1="17.27" x2="96.49" y2="30.51"/><path class="cls-8" d="M101.6,20.63a.57.57,0,0,1,.47.24l3.86,4.87a.52.52,0,0,1,.12.34.51.51,0,0,1-.18.39.54.54,0,0,1-.4.17.57.57,0,0,1-.46-.24l-3.86-4.85a.54.54,0,0,1,0-.75A.58.58,0,0,1,101.6,20.63Zm0,6a.61.61,0,0,1-.37-.14.46.46,0,0,1-.18-.37.51.51,0,0,1,.14-.35l1.8-2.22.58.94-1.51,1.91A.55.55,0,0,1,101.6,26.63Zm3.87-6a.53.53,0,0,1,.39.15.52.52,0,0,1,.16.36.68.68,0,0,1,0,.19.58.58,0,0,1-.11.18l-1.79,2.21-.6-.83,1.53-2A.57.57,0,0,1,105.47,20.64Z"/><line class="cls-9" x1="286.1" y1="42.43" x2="357.5" y2="42.56"/><line class="cls-9" x1="286.07" y1="64.55" x2="357.46" y2="64.68"/><line class="cls-9" x1="333.87" y1="17.94" x2="333.75" y2="89.34"/><line class="cls-9" x1="309.75" y1="18.1" x2="309.63" y2="89.49"/><line class="cls-9" x1="362.84" y1="18.8" x2="377.47" y2="18.82"/><line class="cls-9" x1="362.82" y1="32.03" x2="377.45" y2="32.13"/><line class="cls-9" x1="377.47" y1="18.82" x2="377.45" y2="32.06"/><line class="cls-9" x1="362.84" y1="18.8" x2="362.82" y2="32.03"/><text class="cls-10" transform="translate(128.61 66.45)">ta-<tspan class="cls-11" x="54.66" y="0">t</tspan><tspan class="cls-12" x="70.47" y="0">e-ti</tspan></text></g></svg>